<svg width="297" height="78" viewBox="0 0 297 78" fill="none" xmlns="http://www.w3.org/2000/svg">
<ellipse cx="46" cy="39" rx="46" ry="39" fill="#1EC8C8"/>
<ellipse cx="251" cy="39" rx="46" ry="39" fill="#1EC8C8"/>
<rect x="44" width="214" height="78" fill="#1EC8C8"/>
<path d="M71.5361 46V30.5957H72.9219V44.6787H78.8193V46H71.5361ZM87.9287 42.9814C87.9287 43.4255 87.8428 43.8444 87.6709 44.2383C87.5062 44.6322 87.277 44.9759 86.9834 45.2695C86.6898 45.5632 86.346 45.7959 85.9521 45.9678C85.5583 46.1325 85.1393 46.2148 84.6953 46.2148H83.8145C83.3704 46.2148 82.9515 46.1325 82.5576 45.9678C82.1637 45.7959 81.82 45.5632 81.5264 45.2695C81.2327 44.9759 81 44.6322 80.8281 44.2383C80.6634 43.8444 80.5811 43.4255 80.5811 42.9814V38.0186C80.5811 37.5745 80.6634 37.1556 80.8281 36.7617C81 36.3678 81.2327 36.0241 81.5264 35.7305C81.82 35.4368 82.1637 35.2077 82.5576 35.043C82.9515 34.8711 83.3704 34.7852 83.8145 34.7852H84.6953C85.1393 34.7852 85.5583 34.8711 85.9521 35.043C86.346 35.2077 86.6898 35.4368 86.9834 35.7305C87.277 36.0241 87.5062 36.3678 87.6709 36.7617C87.8428 37.1556 87.9287 37.5745 87.9287 38.0186V40.6074H81.9023V43.0566C81.9023 43.3216 81.9525 43.5723 82.0527 43.8086C82.153 44.0378 82.2891 44.2383 82.4609 44.4102C82.6328 44.582 82.8333 44.7181 83.0625 44.8184C83.2988 44.9186 83.5495 44.9688 83.8145 44.9688H84.6953C84.9603 44.9688 85.2074 44.9186 85.4365 44.8184C85.6729 44.7181 85.877 44.582 86.0488 44.4102C86.2207 44.2383 86.3568 44.0378 86.457 43.8086C86.5573 43.5723 86.6074 43.3216 86.6074 43.0566V42.3262L87.9287 42.541V42.9814ZM86.6074 37.9434C86.6074 37.6784 86.5573 37.4313 86.457 37.2021C86.3568 36.9658 86.2207 36.7617 86.0488 36.5898C85.877 36.418 85.6729 36.2819 85.4365 36.1816C85.2074 36.0814 84.9603 36.0312 84.6953 36.0312H83.8145C83.5495 36.0312 83.2988 36.0814 83.0625 36.1816C82.8333 36.2819 82.6328 36.418 82.4609 36.5898C82.2891 36.7617 82.153 36.9658 82.0527 37.2021C81.9525 37.4313 81.9023 37.6784 81.9023 37.9434V39.5762H86.6074V37.9434ZM94.5781 46C94.1771 46 93.7975 45.9248 93.4395 45.7744C93.0885 45.624 92.7806 45.4163 92.5156 45.1514C92.2578 44.8864 92.0501 44.5785 91.8926 44.2275C91.7422 43.8766 91.667 43.5007 91.667 43.0996V36.2568H89.6904V35H91.667V32.3574L92.9883 32.1426V35H95.7812V36.2568H92.9883V43.1641C92.9883 43.3861 93.0277 43.5938 93.1064 43.7871C93.1924 43.9733 93.307 44.138 93.4502 44.2812C93.5934 44.4245 93.7617 44.5391 93.9551 44.625C94.1484 44.7038 94.3561 44.7432 94.5781 44.7432H95.7812V46H94.5781ZM105.782 43.207C105.782 43.651 105.693 44.0592 105.514 44.4316C105.335 44.7969 105.091 45.112 104.783 45.377C104.475 45.6419 104.117 45.8496 103.709 46C103.308 46.1432 102.885 46.2148 102.441 46.2148H101.561C101.117 46.2148 100.69 46.1325 100.282 45.9678C99.8812 45.7959 99.5267 45.5632 99.2188 45.2695C98.918 44.9759 98.6745 44.6322 98.4883 44.2383C98.3092 43.8444 98.2197 43.4255 98.2197 42.9814V42.541L99.541 42.3262V43.0566C99.541 43.3216 99.5947 43.5723 99.7021 43.8086C99.8167 44.0378 99.9671 44.2383 100.153 44.4102C100.34 44.582 100.554 44.7181 100.798 44.8184C101.041 44.9186 101.296 44.9688 101.561 44.9688H102.441C102.706 44.9688 102.961 44.9294 103.204 44.8506C103.448 44.7718 103.662 44.6608 103.849 44.5176C104.042 44.3672 104.192 44.1882 104.3 43.9805C104.414 43.7728 104.472 43.5365 104.472 43.2715C104.472 42.8776 104.386 42.5553 104.214 42.3047C104.042 42.054 103.813 41.8464 103.526 41.6816C103.247 41.5098 102.925 41.3701 102.56 41.2627C102.201 41.1481 101.833 41.0371 101.453 40.9297C101.074 40.8151 100.701 40.6862 100.336 40.543C99.9779 40.3997 99.6556 40.2135 99.3691 39.9844C99.0898 39.748 98.8643 39.4544 98.6924 39.1035C98.5205 38.7526 98.4346 38.3158 98.4346 37.793C98.4346 37.349 98.5205 36.9443 98.6924 36.5791C98.8643 36.2067 99.097 35.888 99.3906 35.623C99.6842 35.3581 100.024 35.154 100.411 35.0107C100.805 34.8604 101.224 34.7852 101.668 34.7852H102.441C102.885 34.7852 103.304 34.8711 103.698 35.043C104.092 35.2077 104.436 35.4368 104.729 35.7305C105.023 36.0241 105.252 36.3678 105.417 36.7617C105.589 37.1556 105.675 37.5745 105.675 38.0186V38.0615L104.354 38.2764V37.9434C104.354 37.6784 104.303 37.4313 104.203 37.2021C104.103 36.9658 103.967 36.7617 103.795 36.5898C103.623 36.418 103.419 36.2819 103.183 36.1816C102.953 36.0814 102.706 36.0312 102.441 36.0312H101.668C101.403 36.0312 101.152 36.0706 100.916 36.1494C100.687 36.2282 100.486 36.3428 100.314 36.4932C100.143 36.6364 100.007 36.8118 99.9062 37.0195C99.806 37.2272 99.7559 37.4635 99.7559 37.7285C99.7559 38.1081 99.8418 38.4196 100.014 38.6631C100.186 38.8994 100.411 39.0999 100.69 39.2646C100.977 39.4294 101.299 39.569 101.657 39.6836C102.022 39.791 102.391 39.9056 102.764 40.0273C103.143 40.1419 103.512 40.2744 103.87 40.4248C104.235 40.5752 104.558 40.7686 104.837 41.0049C105.123 41.2412 105.353 41.5384 105.524 41.8965C105.696 42.2474 105.782 42.6842 105.782 43.207ZM122.271 46H121.831L121.025 44.7646C120.689 45.2087 120.281 45.5632 119.801 45.8281C119.321 46.0859 118.787 46.2148 118.2 46.2148H117.395C116.872 46.2148 116.378 46.1182 115.912 45.9248C115.454 45.7243 115.053 45.4521 114.709 45.1084C114.365 44.7646 114.093 44.3636 113.893 43.9053C113.699 43.4469 113.603 42.9564 113.603 42.4336V34.1621C113.603 33.6393 113.699 33.1488 113.893 32.6904C114.093 32.2321 114.365 31.8311 114.709 31.4873C115.053 31.1436 115.454 30.875 115.912 30.6816C116.378 30.4811 116.872 30.3809 117.395 30.3809H118.49C119.013 30.3809 119.504 30.4811 119.962 30.6816C120.42 30.875 120.821 31.1436 121.165 31.4873C121.509 31.8311 121.777 32.2321 121.971 32.6904C122.171 33.1488 122.271 33.6393 122.271 34.1621V34.7852L120.886 35V34.1621C120.886 33.8184 120.821 33.4997 120.692 33.2061C120.563 32.9053 120.388 32.6439 120.166 32.4219C119.944 32.1999 119.683 32.0244 119.382 31.8955C119.088 31.7666 118.77 31.7021 118.426 31.7021H117.459C117.115 31.7021 116.793 31.7666 116.492 31.8955C116.199 32.0244 115.937 32.1999 115.708 32.4219C115.486 32.6439 115.311 32.9053 115.182 33.2061C115.053 33.4997 114.988 33.8184 114.988 34.1621V42.4336C114.988 42.7773 115.053 43.0996 115.182 43.4004C115.311 43.694 115.486 43.9554 115.708 44.1846C115.937 44.4066 116.199 44.582 116.492 44.7109C116.793 44.8398 117.115 44.9043 117.459 44.9043H118.426C118.77 44.9043 119.088 44.8398 119.382 44.7109C119.683 44.582 119.944 44.4066 120.166 44.1846C120.388 43.9554 120.563 43.694 120.692 43.4004C120.821 43.0996 120.886 42.7773 120.886 42.4336V39.2217H118.426V37.9004H122.271V46ZM132.487 42.9814C132.487 43.4255 132.401 43.8444 132.229 44.2383C132.065 44.6322 131.836 44.9759 131.542 45.2695C131.248 45.5632 130.905 45.7959 130.511 45.9678C130.117 46.1325 129.698 46.2148 129.254 46.2148H128.373C127.929 46.2148 127.51 46.1325 127.116 45.9678C126.722 45.7959 126.379 45.5632 126.085 45.2695C125.791 44.9759 125.559 44.6322 125.387 44.2383C125.222 43.8444 125.14 43.4255 125.14 42.9814V38.0186C125.14 37.5745 125.222 37.1556 125.387 36.7617C125.559 36.3678 125.791 36.0241 126.085 35.7305C126.379 35.4368 126.722 35.2077 127.116 35.043C127.51 34.8711 127.929 34.7852 128.373 34.7852H129.254C129.698 34.7852 130.117 34.8711 130.511 35.043C130.905 35.2077 131.248 35.4368 131.542 35.7305C131.836 36.0241 132.065 36.3678 132.229 36.7617C132.401 37.1556 132.487 37.5745 132.487 38.0186V40.6074H126.461V43.0566C126.461 43.3216 126.511 43.5723 126.611 43.8086C126.712 44.0378 126.848 44.2383 127.02 44.4102C127.191 44.582 127.392 44.7181 127.621 44.8184C127.857 44.9186 128.108 44.9688 128.373 44.9688H129.254C129.519 44.9688 129.766 44.9186 129.995 44.8184C130.231 44.7181 130.436 44.582 130.607 44.4102C130.779 44.2383 130.915 44.0378 131.016 43.8086C131.116 43.5723 131.166 43.3216 131.166 43.0566V42.3262L132.487 42.541V42.9814ZM131.166 37.9434C131.166 37.6784 131.116 37.4313 131.016 37.2021C130.915 36.9658 130.779 36.7617 130.607 36.5898C130.436 36.418 130.231 36.2819 129.995 36.1816C129.766 36.0814 129.519 36.0312 129.254 36.0312H128.373C128.108 36.0312 127.857 36.0814 127.621 36.1816C127.392 36.2819 127.191 36.418 127.02 36.5898C126.848 36.7617 126.712 36.9658 126.611 37.2021C126.511 37.4313 126.461 37.6784 126.461 37.9434V39.5762H131.166V37.9434ZM139.137 46C138.736 46 138.356 45.9248 137.998 45.7744C137.647 45.624 137.339 45.4163 137.074 45.1514C136.816 44.8864 136.609 44.5785 136.451 44.2275C136.301 43.8766 136.226 43.5007 136.226 43.0996V36.2568H134.249V35H136.226V32.3574L137.547 32.1426V35H140.34V36.2568H137.547V43.1641C137.547 43.3861 137.586 43.5938 137.665 43.7871C137.751 43.9733 137.866 44.138 138.009 44.2812C138.152 44.4245 138.32 44.5391 138.514 44.625C138.707 44.7038 138.915 44.7432 139.137 44.7432H140.34V46H139.137ZM156.732 42.4336C156.732 42.9564 156.625 43.4469 156.41 43.9053C156.202 44.3636 155.92 44.7646 155.562 45.1084C155.211 45.4521 154.799 45.7243 154.326 45.9248C153.861 46.1182 153.367 46.2148 152.844 46.2148H151.737C151.215 46.2148 150.717 46.1182 150.244 45.9248C149.779 45.7243 149.367 45.4521 149.009 45.1084C148.658 44.7646 148.375 44.3636 148.16 43.9053C147.952 43.4469 147.849 42.9564 147.849 42.4336V41.8213L149.234 41.5957V42.4336C149.234 42.7773 149.302 43.0996 149.438 43.4004C149.582 43.694 149.771 43.9554 150.008 44.1846C150.244 44.4066 150.516 44.582 150.824 44.7109C151.139 44.8398 151.469 44.9043 151.812 44.9043H152.779C153.123 44.9043 153.449 44.8398 153.757 44.7109C154.065 44.582 154.337 44.4066 154.573 44.1846C154.81 43.9554 154.996 43.694 155.132 43.4004C155.275 43.0996 155.347 42.7773 155.347 42.4336V41.9717C155.347 41.4417 155.243 41.0013 155.035 40.6504C154.827 40.2995 154.552 40.0023 154.208 39.7588C153.864 39.5081 153.474 39.2969 153.037 39.125C152.607 38.9531 152.163 38.7812 151.705 38.6094C151.247 38.4375 150.799 38.2477 150.362 38.04C149.933 37.8324 149.546 37.5745 149.202 37.2666C148.858 36.9515 148.583 36.5684 148.375 36.1172C148.167 35.666 148.063 35.111 148.063 34.4521V34.1621C148.063 33.6393 148.16 33.1488 148.354 32.6904C148.554 32.2321 148.826 31.8311 149.17 31.4873C149.514 31.1436 149.915 30.875 150.373 30.6816C150.839 30.4811 151.333 30.3809 151.855 30.3809H152.844C153.367 30.3809 153.857 30.4811 154.315 30.6816C154.774 30.875 155.175 31.1436 155.519 31.4873C155.862 31.8311 156.131 32.2321 156.324 32.6904C156.525 33.1488 156.625 33.6393 156.625 34.1621V34.5596L155.239 34.7852V34.1621C155.239 33.8184 155.175 33.4997 155.046 33.2061C154.917 32.9053 154.742 32.6439 154.52 32.4219C154.298 32.1999 154.036 32.0244 153.735 31.8955C153.442 31.7666 153.123 31.7021 152.779 31.7021H151.92C151.576 31.7021 151.254 31.7666 150.953 31.8955C150.66 32.0244 150.398 32.1999 150.169 32.4219C149.947 32.6439 149.771 32.9053 149.643 33.2061C149.514 33.4997 149.449 33.8184 149.449 34.1621V34.4521C149.449 34.9463 149.553 35.3617 149.761 35.6982C149.968 36.0348 150.244 36.3249 150.588 36.5684C150.932 36.8047 151.318 37.0124 151.748 37.1914C152.185 37.3633 152.632 37.5423 153.091 37.7285C153.549 37.9076 153.993 38.1081 154.423 38.3301C154.86 38.5449 155.25 38.8135 155.594 39.1357C155.938 39.4508 156.213 39.8376 156.421 40.2959C156.629 40.7542 156.732 41.3128 156.732 41.9717V42.4336ZM163.285 46C162.884 46 162.505 45.9248 162.146 45.7744C161.796 45.624 161.488 45.4163 161.223 45.1514C160.965 44.8864 160.757 44.5785 160.6 44.2275C160.449 43.8766 160.374 43.5007 160.374 43.0996V36.2568H158.397V35H160.374V32.3574L161.695 32.1426V35H164.488V36.2568H161.695V43.1641C161.695 43.3861 161.735 43.5938 161.813 43.7871C161.899 43.9733 162.014 44.138 162.157 44.2812C162.3 44.4245 162.469 44.5391 162.662 44.625C162.855 44.7038 163.063 44.7432 163.285 44.7432H164.488V46H163.285ZM173.834 46L173.104 44.9043C172.803 45.2982 172.427 45.6169 171.976 45.8604C171.524 46.0967 171.03 46.2148 170.493 46.2148H170.16C169.716 46.2148 169.297 46.1325 168.903 45.9678C168.509 45.7959 168.166 45.5632 167.872 45.2695C167.578 44.9759 167.346 44.6322 167.174 44.2383C167.009 43.8444 166.927 43.4255 166.927 42.9814V42.874C166.927 42.43 167.009 42.0111 167.174 41.6172C167.346 41.2233 167.578 40.8796 167.872 40.5859C168.166 40.2923 168.509 40.0632 168.903 39.8984C169.297 39.7266 169.716 39.6406 170.16 39.6406H172.953V37.9434C172.953 37.6784 172.903 37.4313 172.803 37.2021C172.702 36.9658 172.566 36.7617 172.395 36.5898C172.223 36.418 172.019 36.2819 171.782 36.1816C171.553 36.0814 171.306 36.0312 171.041 36.0312H170.268C170.003 36.0312 169.752 36.0814 169.516 36.1816C169.286 36.2819 169.086 36.418 168.914 36.5898C168.742 36.7617 168.606 36.9658 168.506 37.2021C168.406 37.4313 168.355 37.6784 168.355 37.9434V38.3408L167.034 38.126V38.0186C167.034 37.5745 167.117 37.1556 167.281 36.7617C167.453 36.3678 167.686 36.0241 167.979 35.7305C168.273 35.4368 168.617 35.2077 169.011 35.043C169.405 34.8711 169.824 34.7852 170.268 34.7852H171.041C171.485 34.7852 171.904 34.8711 172.298 35.043C172.692 35.2077 173.035 35.4368 173.329 35.7305C173.623 36.0241 173.852 36.3678 174.017 36.7617C174.188 37.1556 174.274 37.5745 174.274 38.0186V46H173.834ZM172.953 40.6719H170.16C169.895 40.6719 169.645 40.722 169.408 40.8223C169.179 40.9225 168.979 41.0622 168.807 41.2412C168.635 41.4131 168.499 41.6172 168.398 41.8535C168.298 42.0827 168.248 42.3298 168.248 42.5947V43.0566C168.248 43.3216 168.298 43.5723 168.398 43.8086C168.499 44.0378 168.635 44.2383 168.807 44.4102C168.979 44.582 169.179 44.7181 169.408 44.8184C169.645 44.9186 169.895 44.9688 170.16 44.9688H171.041C171.306 44.9688 171.553 44.9186 171.782 44.8184C172.019 44.7181 172.223 44.582 172.395 44.4102C172.566 44.2383 172.702 44.0378 172.803 43.8086C172.903 43.5723 172.953 43.3216 172.953 43.0566V40.6719ZM180.15 36.2568C179.885 36.2568 179.635 36.307 179.398 36.4072C179.169 36.5075 178.969 36.6436 178.797 36.8154C178.625 36.9873 178.489 37.1914 178.389 37.4277C178.288 37.6569 178.238 37.904 178.238 38.1689V46H176.917V35H177.357L178.077 36.1172C178.378 35.709 178.754 35.3867 179.205 35.1504C179.663 34.9069 180.161 34.7852 180.698 34.7852H181.472V36.2568H180.15ZM187.24 46C186.839 46 186.46 45.9248 186.102 45.7744C185.751 45.624 185.443 45.4163 185.178 45.1514C184.92 44.8864 184.712 44.5785 184.555 44.2275C184.404 43.8766 184.329 43.5007 184.329 43.0996V36.2568H182.353V35H184.329V32.3574L185.65 32.1426V35H188.443V36.2568H185.65V43.1641C185.65 43.3861 185.69 43.5938 185.769 43.7871C185.854 43.9733 185.969 44.138 186.112 44.2812C186.256 44.4245 186.424 44.5391 186.617 44.625C186.811 44.7038 187.018 44.7432 187.24 44.7432H188.443V46H187.24ZM198.229 42.9814C198.229 43.4255 198.144 43.8444 197.972 44.2383C197.807 44.6322 197.578 44.9759 197.284 45.2695C196.991 45.5632 196.647 45.7959 196.253 45.9678C195.859 46.1325 195.44 46.2148 194.996 46.2148H194.115C193.671 46.2148 193.252 46.1325 192.858 45.9678C192.465 45.7959 192.121 45.5632 191.827 45.2695C191.534 44.9759 191.301 44.6322 191.129 44.2383C190.964 43.8444 190.882 43.4255 190.882 42.9814V38.0186C190.882 37.5745 190.964 37.1556 191.129 36.7617C191.301 36.3678 191.534 36.0241 191.827 35.7305C192.121 35.4368 192.465 35.2077 192.858 35.043C193.252 34.8711 193.671 34.7852 194.115 34.7852H194.996C195.44 34.7852 195.859 34.8711 196.253 35.043C196.647 35.2077 196.991 35.4368 197.284 35.7305C197.578 36.0241 197.807 36.3678 197.972 36.7617C198.144 37.1556 198.229 37.5745 198.229 38.0186V40.6074H192.203V43.0566C192.203 43.3216 192.253 43.5723 192.354 43.8086C192.454 44.0378 192.59 44.2383 192.762 44.4102C192.934 44.582 193.134 44.7181 193.363 44.8184C193.6 44.9186 193.85 44.9688 194.115 44.9688H194.996C195.261 44.9688 195.508 44.9186 195.737 44.8184C195.974 44.7181 196.178 44.582 196.35 44.4102C196.521 44.2383 196.658 44.0378 196.758 43.8086C196.858 43.5723 196.908 43.3216 196.908 43.0566V42.3262L198.229 42.541V42.9814ZM196.908 37.9434C196.908 37.6784 196.858 37.4313 196.758 37.2021C196.658 36.9658 196.521 36.7617 196.35 36.5898C196.178 36.418 195.974 36.2819 195.737 36.1816C195.508 36.0814 195.261 36.0312 194.996 36.0312H194.115C193.85 36.0312 193.6 36.0814 193.363 36.1816C193.134 36.2819 192.934 36.418 192.762 36.5898C192.59 36.7617 192.454 36.9658 192.354 37.2021C192.253 37.4313 192.203 37.6784 192.203 37.9434V39.5762H196.908V37.9434ZM207.779 46L207.049 44.8828C206.748 45.291 206.372 45.6169 205.921 45.8604C205.47 46.0967 204.976 46.2148 204.438 46.2148H204.105C203.661 46.2148 203.243 46.1325 202.849 45.9678C202.455 45.7959 202.111 45.5632 201.817 45.2695C201.524 44.9759 201.291 44.6322 201.119 44.2383C200.954 43.8444 200.872 43.4255 200.872 42.9814V38.0186C200.872 37.5745 200.954 37.1556 201.119 36.7617C201.291 36.3678 201.524 36.0241 201.817 35.7305C202.111 35.4368 202.455 35.2077 202.849 35.043C203.243 34.8711 203.661 34.7852 204.105 34.7852H204.438C204.933 34.7852 205.391 34.8854 205.813 35.0859C206.236 35.2865 206.598 35.5658 206.898 35.9238V30.5957H208.22V46H207.779ZM206.898 37.9434C206.898 37.6784 206.848 37.4313 206.748 37.2021C206.648 36.9658 206.512 36.7617 206.34 36.5898C206.168 36.418 205.964 36.2819 205.728 36.1816C205.498 36.0814 205.251 36.0312 204.986 36.0312H204.105C203.84 36.0312 203.59 36.0814 203.354 36.1816C203.124 36.2819 202.924 36.418 202.752 36.5898C202.58 36.7617 202.444 36.9658 202.344 37.2021C202.243 37.4313 202.193 37.6784 202.193 37.9434V43.0566C202.193 43.3216 202.243 43.5723 202.344 43.8086C202.444 44.0378 202.58 44.2383 202.752 44.4102C202.924 44.582 203.124 44.7181 203.354 44.8184C203.59 44.9186 203.84 44.9688 204.105 44.9688H204.986C205.251 44.9688 205.498 44.9186 205.728 44.8184C205.964 44.7181 206.168 44.582 206.34 44.4102C206.512 44.2383 206.648 44.0378 206.748 43.8086C206.848 43.5723 206.898 43.3216 206.898 43.0566V37.9434Z" fill="white"/>
<path d="M71.5361 46H70.5361V47H71.5361V46ZM71.5361 30.5957V29.5957H70.5361V30.5957H71.5361ZM72.9219 30.5957H73.9219V29.5957H72.9219V30.5957ZM72.9219 44.6787H71.9219V45.6787H72.9219V44.6787ZM78.8193 44.6787H79.8193V43.6787H78.8193V44.6787ZM78.8193 46V47H79.8193V46H78.8193ZM72.5361 46V30.5957H70.5361V46H72.5361ZM71.5361 31.5957H72.9219V29.5957H71.5361V31.5957ZM71.9219 30.5957V44.6787H73.9219V30.5957H71.9219ZM72.9219 45.6787H78.8193V43.6787H72.9219V45.6787ZM77.8193 44.6787V46H79.8193V44.6787H77.8193ZM78.8193 45H71.5361V47H78.8193V45ZM87.6709 44.2383L86.7544 43.8383L86.7513 43.8454L86.7483 43.8525L87.6709 44.2383ZM86.9834 45.2695L86.2763 44.5624L86.9834 45.2695ZM85.9521 45.9678L86.338 46.8904L86.345 46.8874L86.3521 46.8843L85.9521 45.9678ZM82.5576 45.9678L82.1577 46.8843L82.1647 46.8874L82.1718 46.8904L82.5576 45.9678ZM81.5264 45.2695L80.8193 45.9766L81.5264 45.2695ZM80.8281 44.2383L79.9055 44.6241L79.9085 44.6312L79.9116 44.6382L80.8281 44.2383ZM80.8281 36.7617L79.9116 36.3618L79.9085 36.3688L79.9055 36.3759L80.8281 36.7617ZM81.5264 35.7305L80.8193 35.0234L81.5264 35.7305ZM82.5576 35.043L82.9434 35.9655L82.9505 35.9626L82.9576 35.9595L82.5576 35.043ZM85.9521 35.043L85.5522 35.9595L85.5592 35.9626L85.5663 35.9655L85.9521 35.043ZM86.9834 35.7305L86.2763 36.4376L86.9834 35.7305ZM87.6709 36.7617L86.7483 37.1475L86.7513 37.1546L86.7544 37.1617L87.6709 36.7617ZM87.9287 40.6074V41.6074H88.9287V40.6074H87.9287ZM81.9023 40.6074V39.6074H80.9023V40.6074H81.9023ZM82.0527 43.8086L81.1321 44.1992L81.1366 44.2094L82.0527 43.8086ZM83.0625 44.8184L82.6617 45.7346L82.672 45.7389L83.0625 44.8184ZM85.4365 44.8184L85.0459 43.8977L85.0357 43.9022L85.4365 44.8184ZM86.457 43.8086L87.3732 44.2094L87.3776 44.1991L86.457 43.8086ZM86.6074 42.3262L86.7679 41.3391L85.6074 41.1504V42.3262H86.6074ZM87.9287 42.541H88.9287V41.6905L88.0892 41.554L87.9287 42.541ZM86.457 37.2021L85.5364 37.5927L85.5409 37.603L86.457 37.2021ZM85.4365 36.1816L85.0357 37.0979L85.046 37.1022L85.4365 36.1816ZM83.0625 36.1816L82.6719 35.261L82.6617 35.2655L83.0625 36.1816ZM82.0527 37.2021L82.9689 37.603L82.9733 37.5927L82.0527 37.2021ZM81.9023 39.5762H80.9023V40.5762H81.9023V39.5762ZM86.6074 39.5762V40.5762H87.6074V39.5762H86.6074ZM86.9287 42.9814C86.9287 43.2925 86.8693 43.5748 86.7544 43.8383L88.5874 44.6382C88.8162 44.114 88.9287 43.5584 88.9287 42.9814H86.9287ZM86.7483 43.8525C86.6324 44.1297 86.4752 44.3635 86.2763 44.5624L87.6905 45.9766C88.0788 45.5884 88.38 45.1346 88.5935 44.6241L86.7483 43.8525ZM86.2763 44.5624C86.0742 44.7646 85.8356 44.9276 85.5522 45.0512L86.3521 46.8843C86.8565 46.6642 87.3054 46.3617 87.6905 45.9766L86.2763 44.5624ZM85.5663 45.0452C85.2996 45.1568 85.0123 45.2148 84.6953 45.2148V47.2148C85.2664 47.2148 85.817 47.1082 86.338 46.8904L85.5663 45.0452ZM84.6953 45.2148H83.8145V47.2148H84.6953V45.2148ZM83.8145 45.2148C83.4975 45.2148 83.2102 45.1568 82.9434 45.0452L82.1718 46.8904C82.6928 47.1082 83.2434 47.2148 83.8145 47.2148V45.2148ZM82.9576 45.0512C82.6742 44.9276 82.4356 44.7646 82.2335 44.5624L80.8193 45.9766C81.2044 46.3617 81.6533 46.6642 82.1577 46.8843L82.9576 45.0512ZM82.2335 44.5624C82.0313 44.3603 81.8683 44.1217 81.7447 43.8383L79.9116 44.6382C80.1317 45.1426 80.4342 45.5915 80.8193 45.9766L82.2335 44.5624ZM81.7507 43.8525C81.6391 43.5857 81.5811 43.2984 81.5811 42.9814H79.5811C79.5811 43.5525 79.6877 44.1031 79.9055 44.6241L81.7507 43.8525ZM81.5811 42.9814V38.0186H79.5811V42.9814H81.5811ZM81.5811 38.0186C81.5811 37.7016 81.6391 37.4143 81.7507 37.1475L79.9055 36.3759C79.6877 36.8969 79.5811 37.4475 79.5811 38.0186H81.5811ZM81.7447 37.1617C81.8683 36.8783 82.0313 36.6397 82.2335 36.4376L80.8193 35.0234C80.4342 35.4085 80.1317 35.8574 79.9116 36.3618L81.7447 37.1617ZM82.2335 36.4376C82.4324 36.2386 82.6662 36.0815 82.9434 35.9655L82.1718 34.1204C81.6613 34.3339 81.2075 34.6351 80.8193 35.0234L82.2335 36.4376ZM82.9576 35.9595C83.2211 35.8445 83.5034 35.7852 83.8145 35.7852V33.7852C83.2375 33.7852 82.6819 33.8977 82.1577 34.1264L82.9576 35.9595ZM83.8145 35.7852H84.6953V33.7852H83.8145V35.7852ZM84.6953 35.7852C85.0064 35.7852 85.2887 35.8445 85.5522 35.9595L86.3521 34.1264C85.8278 33.8977 85.2723 33.7852 84.6953 33.7852V35.7852ZM85.5663 35.9655C85.8436 36.0815 86.0773 36.2386 86.2763 36.4376L87.6905 35.0234C87.3022 34.6351 86.8485 34.3339 86.338 34.1204L85.5663 35.9655ZM86.2763 36.4376C86.4752 36.6365 86.6324 36.8703 86.7483 37.1475L88.5935 36.3759C88.38 35.8654 88.0788 35.4116 87.6905 35.0234L86.2763 36.4376ZM86.7544 37.1617C86.8693 37.4252 86.9287 37.7075 86.9287 38.0186H88.9287C88.9287 37.4416 88.8162 36.886 88.5874 36.3618L86.7544 37.1617ZM86.9287 38.0186V40.6074H88.9287V38.0186H86.9287ZM87.9287 39.6074H81.9023V41.6074H87.9287V39.6074ZM80.9023 40.6074V43.0566H82.9023V40.6074H80.9023ZM80.9023 43.0566C80.9023 43.4514 80.9778 43.8353 81.1322 44.1991L82.9733 43.418C82.9272 43.3093 82.9023 43.1918 82.9023 43.0566H80.9023ZM81.1366 44.2094C81.2853 44.5494 81.4912 44.8546 81.7538 45.1173L83.168 43.703C83.0869 43.6219 83.0207 43.5261 82.9689 43.4078L81.1366 44.2094ZM81.7538 45.1173C82.0165 45.3799 82.3217 45.5858 82.6617 45.7345L83.4633 43.9022C83.345 43.8504 83.2492 43.7842 83.168 43.703L81.7538 45.1173ZM82.672 45.7389C83.0358 45.8933 83.4197 45.9688 83.8145 45.9688V43.9688C83.6793 43.9688 83.5618 43.9439 83.453 43.8978L82.672 45.7389ZM83.8145 45.9688H84.6953V43.9688H83.8145V45.9688ZM84.6953 45.9688C85.0899 45.9688 85.4744 45.8933 85.8373 45.7345L85.0357 43.9022C84.9403 43.9439 84.8307 43.9688 84.6953 43.9688V45.9688ZM85.8271 45.7389C86.1749 45.5914 86.4882 45.385 86.7559 45.1173L85.3417 43.703C85.2657 43.7791 85.1708 43.8448 85.046 43.8978L85.8271 45.7389ZM86.7559 45.1173C87.0186 44.8546 87.2244 44.5494 87.3732 44.2094L85.5409 43.4078C85.4891 43.5261 85.4228 43.6219 85.3417 43.703L86.7559 45.1173ZM87.3776 44.1991C87.532 43.8353 87.6074 43.4514 87.6074 43.0566H85.6074C85.6074 43.1918 85.5826 43.3093 85.5364 43.418L87.3776 44.1991ZM87.6074 43.0566V42.3262H85.6074V43.0566H87.6074ZM86.4469 43.3132L87.7682 43.5281L88.0892 41.554L86.7679 41.3391L86.4469 43.3132ZM86.9287 42.541V42.9814H88.9287V42.541H86.9287ZM87.6074 37.9434C87.6074 37.5487 87.532 37.1643 87.3732 36.8013L85.5409 37.603C85.5826 37.6983 85.6074 37.808 85.6074 37.9434H87.6074ZM87.3776 36.8116C87.23 36.4638 87.0237 36.1505 86.7559 35.8827L85.3417 37.297C85.4177 37.373 85.4835 37.4679 85.5364 37.5927L87.3776 36.8116ZM86.7559 35.8827C86.4882 35.615 86.1749 35.4086 85.8271 35.2611L85.046 37.1022C85.1708 37.1552 85.2657 37.2209 85.3417 37.297L86.7559 35.8827ZM85.8373 35.2655C85.4744 35.1067 85.0899 35.0312 84.6953 35.0312V37.0312C84.8307 37.0312 84.9403 37.0561 85.0357 37.0978L85.8373 35.2655ZM84.6953 35.0312H83.8145V37.0312H84.6953V35.0312ZM83.8145 35.0312C83.4197 35.0312 83.0358 35.1067 82.672 35.2611L83.453 37.1022C83.5618 37.0561 83.6793 37.0312 83.8145 37.0312V35.0312ZM82.6617 35.2655C82.3217 35.4142 82.0165 35.6201 81.7538 35.8827L83.168 37.297C83.2492 37.2158 83.345 37.1496 83.4633 37.0978L82.6617 35.2655ZM81.7538 35.8827C81.4861 36.1505 81.2797 36.4638 81.1322 36.8116L82.9733 37.5927C83.0263 37.4679 83.092 37.373 83.168 37.297L81.7538 35.8827ZM81.1366 36.8013C80.9778 37.1643 80.9023 37.5487 80.9023 37.9434H82.9023C82.9023 37.808 82.9272 37.6983 82.9689 37.603L81.1366 36.8013ZM80.9023 37.9434V39.5762H82.9023V37.9434H80.9023ZM81.9023 40.5762H86.6074V38.5762H81.9023V40.5762ZM87.6074 39.5762V37.9434H85.6074V39.5762H87.6074ZM93.4395 45.7744L93.0455 46.6936L93.0522 46.6964L93.4395 45.7744ZM92.5156 45.1514L91.7988 45.8488L91.8085 45.8585L92.5156 45.1514ZM91.8926 44.2275L90.9734 44.6215L90.9768 44.6293L90.9803 44.6371L91.8926 44.2275ZM91.667 36.2568H92.667V35.2568H91.667V36.2568ZM89.6904 36.2568H88.6904V37.2568H89.6904V36.2568ZM89.6904 35V34H88.6904V35H89.6904ZM91.667 35V36H92.667V35H91.667ZM91.667 32.3574L91.5065 31.3704L90.667 31.5069V32.3574H91.667ZM92.9883 32.1426H93.9883V30.9668L92.8278 31.1555L92.9883 32.1426ZM92.9883 35H91.9883V36H92.9883V35ZM95.7812 35H96.7812V34H95.7812V35ZM95.7812 36.2568V37.2568H96.7812V36.2568H95.7812ZM92.9883 36.2568V35.2568H91.9883V36.2568H92.9883ZM93.1064 43.7871L92.1804 44.1644L92.1889 44.1855L92.1985 44.2062L93.1064 43.7871ZM93.9551 44.625L93.5489 45.5388L93.5633 45.5452L93.5778 45.5511L93.9551 44.625ZM95.7812 44.7432H96.7812V43.7432H95.7812V44.7432ZM95.7812 46V47H96.7812V46H95.7812ZM94.5781 45C94.3056 45 94.0581 44.9496 93.8267 44.8524L93.0522 46.6964C93.5369 46.9 94.0485 47 94.5781 47V45ZM93.8334 44.8553C93.5971 44.754 93.396 44.6176 93.2227 44.4443L91.8085 45.8585C92.1652 46.2151 92.5799 46.494 93.0455 46.6936L93.8334 44.8553ZM93.2324 44.454C93.0593 44.2762 92.9165 44.0666 92.8048 43.8179L90.9803 44.6371C91.1838 45.0903 91.4563 45.4966 91.7989 45.8487L93.2324 44.454ZM92.8117 43.8336C92.7174 43.6134 92.667 43.3722 92.667 43.0996H90.667C90.667 43.6291 90.767 44.1398 90.9734 44.6215L92.8117 43.8336ZM92.667 43.0996V36.2568H90.667V43.0996H92.667ZM91.667 35.2568H89.6904V37.2568H91.667V35.2568ZM90.6904 36.2568V35H88.6904V36.2568H90.6904ZM89.6904 36H91.667V34H89.6904V36ZM92.667 35V32.3574H90.667V35H92.667ZM91.8275 33.3445L93.1488 33.1296L92.8278 31.1555L91.5065 31.3704L91.8275 33.3445ZM91.9883 32.1426V35H93.9883V32.1426H91.9883ZM92.9883 36H95.7812V34H92.9883V36ZM94.7812 35V36.2568H96.7812V35H94.7812ZM95.7812 35.2568H92.9883V37.2568H95.7812V35.2568ZM91.9883 36.2568V43.1641H93.9883V36.2568H91.9883ZM91.9883 43.1641C91.9883 43.5071 92.0497 43.8438 92.1804 44.1644L94.0325 43.4098C94.0056 43.3437 93.9883 43.265 93.9883 43.1641H91.9883ZM92.1985 44.2062C92.3332 44.4981 92.5154 44.7607 92.7431 44.9884L94.1573 43.5741C94.0985 43.5154 94.0515 43.4485 94.0144 43.3681L92.1985 44.2062ZM92.7431 44.9884C92.9769 45.2222 93.2485 45.4053 93.5489 45.5388L94.3612 43.7112C94.2749 43.6728 94.2099 43.6267 94.1573 43.5741L92.7431 44.9884ZM93.5778 45.5511C93.8984 45.6817 94.235 45.7432 94.5781 45.7432V43.7432C94.4772 43.7432 94.3985 43.7258 94.3324 43.6989L93.5778 45.5511ZM94.5781 45.7432H95.7812V43.7432H94.5781V45.7432ZM94.7812 44.7432V46H96.7812V44.7432H94.7812ZM95.7812 45H94.5781V47H95.7812V45ZM105.514 44.4316L106.412 44.8718L106.415 44.8649L105.514 44.4316ZM104.783 45.377L105.435 46.135L104.783 45.377ZM103.709 46L104.045 46.9418L104.055 46.9383L103.709 46ZM100.282 45.9678L99.8883 46.8869L99.8981 46.8911L99.908 46.8951L100.282 45.9678ZM99.2188 45.2695L98.5202 45.9852L98.5287 45.9933L99.2188 45.2695ZM98.4883 44.2383L97.5779 44.6521L97.581 44.6589L97.5842 44.6657L98.4883 44.2383ZM98.2197 42.541L98.0592 41.554L97.2197 41.6905V42.541H98.2197ZM99.541 42.3262H100.541V41.1504L99.3805 41.3391L99.541 42.3262ZM99.7021 43.8086L98.7918 44.2224L98.7994 44.2393L98.8077 44.2558L99.7021 43.8086ZM100.798 44.8184L100.417 45.743L100.798 44.8184ZM103.849 44.5176L104.458 45.3102L104.463 45.3069L103.849 44.5176ZM104.3 43.9805L103.424 43.4974L103.418 43.5091L103.412 43.521L104.3 43.9805ZM103.526 41.6816L103.002 42.5333L103.015 42.5411L103.028 42.5485L103.526 41.6816ZM102.56 41.2627L102.255 42.2151L102.266 42.2187L102.277 42.2221L102.56 41.2627ZM101.453 40.9297L101.164 41.887L101.172 41.8895L101.181 41.8919L101.453 40.9297ZM100.336 40.543L99.9645 41.4715L99.9708 41.4739L100.336 40.543ZM99.3691 39.9844L98.7232 40.7478L98.7337 40.7566L98.7444 40.7652L99.3691 39.9844ZM98.6924 36.5791L99.5972 37.0049L99.6003 36.9982L98.6924 36.5791ZM99.3906 35.623L100.061 36.3654L99.3906 35.623ZM100.411 35.0107L100.758 35.9485L100.768 35.945L100.411 35.0107ZM103.698 35.043L103.298 35.9595L103.305 35.9626L103.312 35.9655L103.698 35.043ZM104.729 35.7305L104.022 36.4376L104.729 35.7305ZM105.417 36.7617L104.494 37.1475L104.497 37.1546L104.5 37.1617L105.417 36.7617ZM105.675 38.0615L105.835 39.0486L106.675 38.9121V38.0615H105.675ZM104.354 38.2764H103.354V39.4521L104.514 39.2634L104.354 38.2764ZM104.203 37.2021L103.282 37.5927L103.287 37.603L104.203 37.2021ZM103.183 36.1816L102.782 37.0979L102.792 37.1022L103.183 36.1816ZM100.916 36.1494L100.6 35.2007L100.591 35.2037L100.916 36.1494ZM100.314 36.4932L100.955 37.2614L100.964 37.2537L100.973 37.2457L100.314 36.4932ZM100.014 38.6631L99.1966 39.2398L99.2049 39.2513L100.014 38.6631ZM100.69 39.2646L100.182 40.1261L100.192 40.1316L100.69 39.2646ZM101.657 39.6836L101.352 40.636L101.364 40.6396L101.375 40.643L101.657 39.6836ZM102.764 40.0273L102.453 40.9778L102.464 40.9814L102.475 40.9847L102.764 40.0273ZM103.87 40.4248L103.483 41.3468L103.489 41.3495L103.87 40.4248ZM104.837 41.0049L104.191 41.7683L104.201 41.7763L104.837 41.0049ZM105.524 41.8965L104.623 42.3292L104.626 42.3364L105.524 41.8965ZM104.782 43.207C104.782 43.5124 104.722 43.7711 104.612 43.9983L106.415 44.8649C106.664 44.3474 106.782 43.7896 106.782 43.207H104.782ZM104.616 43.9915C104.496 44.2354 104.336 44.4423 104.131 44.6189L105.435 46.135C105.846 45.7816 106.173 45.3584 106.412 44.8718L104.616 43.9915ZM104.131 44.6189C103.92 44.8006 103.667 44.9496 103.363 45.0617L104.055 46.9383C104.567 46.7496 105.031 46.4832 105.435 46.135L104.131 44.6189ZM103.373 45.0583C103.084 45.1613 102.776 45.2148 102.441 45.2148V47.2148C102.995 47.2148 103.532 47.1252 104.045 46.9417L103.373 45.0583ZM102.441 45.2148H101.561V47.2148H102.441V45.2148ZM101.561 45.2148C101.244 45.2148 100.945 45.1567 100.656 45.0404L99.908 46.8951C100.436 47.1082 100.989 47.2148 101.561 47.2148V45.2148ZM100.676 45.0486C100.382 44.9225 100.128 44.755 99.9088 44.5458L98.5287 45.9933C98.9251 46.3713 99.3805 46.6693 99.8883 46.8869L100.676 45.0486ZM99.9173 44.554C99.7047 44.3464 99.5296 44.1012 99.3924 43.8109L97.5842 44.6657C97.8194 45.1631 98.1312 45.6054 98.5202 45.9851L99.9173 44.554ZM99.3986 43.8245C99.2803 43.564 99.2197 43.2866 99.2197 42.9814H97.2197C97.2197 43.5644 97.3382 44.1248 97.5779 44.6521L99.3986 43.8245ZM99.2197 42.9814V42.541H97.2197V42.9814H99.2197ZM98.3802 43.5281L99.7015 43.3132L99.3805 41.3391L98.0592 41.554L98.3802 43.5281ZM98.541 42.3262V43.0566H100.541V42.3262H98.541ZM98.541 43.0566C98.541 43.4613 98.624 43.8534 98.7918 44.2224L100.613 43.3948C100.565 43.2912 100.541 43.1819 100.541 43.0566H98.541ZM98.8077 44.2558C98.9758 44.5919 99.199 44.8902 99.475 45.145L100.832 43.6754C100.735 43.5864 100.658 43.4836 100.597 43.3614L98.8077 44.2558ZM99.475 45.145C99.7518 45.4004 100.068 45.5994 100.417 45.743L101.179 43.8937C101.04 43.8368 100.927 43.7637 100.832 43.6754L99.475 45.145ZM100.417 45.743C100.782 45.8934 101.166 45.9688 101.561 45.9688V43.9688C101.425 43.9688 101.301 43.9439 101.179 43.8937L100.417 45.743ZM101.561 45.9688H102.441V43.9688H101.561V45.9688ZM102.441 45.9688C102.807 45.9688 103.166 45.9141 103.512 45.802L102.896 43.8991C102.756 43.9446 102.606 43.9688 102.441 43.9688V45.9688ZM103.512 45.802C103.855 45.6911 104.174 45.5293 104.458 45.3102L103.239 43.725C103.151 43.7924 103.041 43.8525 102.896 43.8991L103.512 45.802ZM104.463 45.3069C104.765 45.072 105.011 44.7822 105.188 44.4399L103.412 43.521C103.374 43.5941 103.319 43.6623 103.235 43.7282L104.463 45.3069ZM105.175 44.4635C105.381 44.0912 105.472 43.6853 105.472 43.2715H103.472C103.472 43.3877 103.448 43.4543 103.424 43.4974L105.175 44.4635ZM105.472 43.2715C105.472 42.735 105.354 42.1993 105.039 41.7392L103.389 42.8702C103.417 42.9114 103.472 43.0202 103.472 43.2715H105.472ZM105.039 41.7392C104.775 41.3543 104.43 41.0476 104.025 40.8147L103.028 42.5485C103.196 42.6452 103.309 42.7537 103.389 42.8702L105.039 41.7392ZM104.05 40.83C103.685 40.6049 103.279 40.4319 102.842 40.3033L102.277 42.2221C102.571 42.3084 102.809 42.4146 103.002 42.5333L104.05 40.83ZM102.864 40.3103C102.495 40.1921 102.115 40.0778 101.725 39.9675L101.181 41.8919C101.55 41.9964 101.908 42.1041 102.255 42.2151L102.864 40.3103ZM101.742 39.9724C101.388 39.8655 101.041 39.7453 100.701 39.612L99.9708 41.4739C100.361 41.6271 100.759 41.7648 101.164 41.887L101.742 39.9724ZM100.707 39.6145C100.436 39.5059 100.2 39.3682 99.9938 39.2035L98.7444 40.7652C99.1115 41.0589 99.5199 41.2936 99.9645 41.4714L100.707 39.6145ZM100.015 39.221C99.8483 39.0799 99.7057 38.899 99.5904 38.6636L97.7943 39.5434C98.0228 40.0098 98.3314 40.4162 98.7232 40.7478L100.015 39.221ZM99.5904 38.6636C99.5043 38.4878 99.4346 38.2124 99.4346 37.793H97.4346C97.4346 38.4191 97.5367 39.0174 97.7943 39.5434L99.5904 38.6636ZM99.4346 37.793C99.4346 37.4813 99.4941 37.2241 99.5972 37.0049L97.7876 36.1533C97.547 36.6646 97.4346 37.2166 97.4346 37.793H99.4346ZM99.6003 36.9982C99.7177 36.7439 99.8711 36.5365 100.061 36.3654L98.7207 34.8807C98.3229 35.2396 98.0108 35.6695 97.7844 36.16L99.6003 36.9982ZM100.061 36.3654C100.256 36.1891 100.486 36.0496 100.758 35.9485L100.064 34.073C99.5633 34.2584 99.1125 34.5271 98.7207 34.8807L100.061 36.3654ZM100.768 35.945C101.042 35.8403 101.339 35.7852 101.668 35.7852V33.7852C101.109 33.7852 100.568 33.8804 100.054 34.0765L100.768 35.945ZM101.668 35.7852H102.441V33.7852H101.668V35.7852ZM102.441 35.7852C102.752 35.7852 103.035 35.8445 103.298 35.9595L104.098 34.1264C103.574 33.8977 103.018 33.7852 102.441 33.7852V35.7852ZM103.312 35.9655C103.59 36.0815 103.823 36.2386 104.022 36.4376L105.437 35.0234C105.048 34.6351 104.595 34.3339 104.084 34.1204L103.312 35.9655ZM104.022 36.4376C104.221 36.6365 104.378 36.8703 104.494 37.1475L106.34 36.3759C106.126 35.8654 105.825 35.4116 105.437 35.0234L104.022 36.4376ZM104.5 37.1617C104.615 37.4252 104.675 37.7075 104.675 38.0186H106.675C106.675 37.4416 106.562 36.886 106.334 36.3618L104.5 37.1617ZM104.675 38.0186V38.0615H106.675V38.0186H104.675ZM105.514 37.0745L104.193 37.2893L104.514 39.2634L105.835 39.0486L105.514 37.0745ZM105.354 38.2764V37.9434H103.354V38.2764H105.354ZM105.354 37.9434C105.354 37.5487 105.278 37.1643 105.119 36.8013L103.287 37.603C103.329 37.6983 103.354 37.808 103.354 37.9434H105.354ZM105.124 36.8116C104.976 36.4638 104.77 36.1505 104.502 35.8827L103.088 37.297C103.164 37.373 103.23 37.4679 103.283 37.5927L105.124 36.8116ZM104.502 35.8827C104.234 35.615 103.921 35.4086 103.573 35.2611L102.792 37.1022C102.917 37.1552 103.012 37.2209 103.088 37.297L104.502 35.8827ZM103.583 35.2655C103.22 35.1067 102.836 35.0312 102.441 35.0312V37.0312C102.577 37.0312 102.686 37.0561 102.782 37.0978L103.583 35.2655ZM102.441 35.0312H101.668V37.0312H102.441V35.0312ZM101.668 35.0312C101.302 35.0312 100.944 35.0859 100.6 35.2007L101.232 37.0981C101.36 37.0554 101.504 37.0312 101.668 37.0312V35.0312ZM100.591 35.2037C100.247 35.322 99.9313 35.4997 99.6559 35.7406L100.973 37.2457C101.041 37.1859 101.127 37.1343 101.241 37.0951L100.591 35.2037ZM99.6743 35.7249C99.3894 35.9623 99.166 36.2527 99.0057 36.5848L100.807 37.4543C100.847 37.371 100.896 37.3105 100.955 37.2614L99.6743 35.7249ZM99.0057 36.5848C98.8309 36.9469 98.7559 37.3354 98.7559 37.7285H100.756C100.756 37.5917 100.781 37.5075 100.807 37.4543L99.0057 36.5848ZM98.7559 37.7285C98.7559 38.258 98.8768 38.7866 99.1967 39.2398L100.831 38.0864C100.807 38.0526 100.756 37.9581 100.756 37.7285H98.7559ZM99.2049 39.2513C99.4657 39.6098 99.7982 39.8994 100.182 40.126L101.198 38.4033C101.024 38.3004 100.905 38.189 100.822 38.0749L99.2049 39.2513ZM100.192 40.1316C100.547 40.336 100.936 40.5028 101.352 40.636L101.962 38.7312C101.662 38.6353 101.406 38.5227 101.189 38.3977L100.192 40.1316ZM101.375 40.643C101.73 40.7475 102.09 40.8591 102.453 40.9778L103.074 39.0768C102.693 38.9521 102.314 38.8345 101.939 38.7242L101.375 40.643ZM102.475 40.9847C102.822 41.0894 103.158 41.2102 103.483 41.3468L104.257 39.5028C103.867 39.3387 103.465 39.1945 103.053 39.07L102.475 40.9847ZM103.489 41.3495C103.766 41.4634 103.997 41.6043 104.191 41.7683L105.483 40.2415C105.118 39.9328 104.705 39.687 104.251 39.5001L103.489 41.3495ZM104.201 41.7763C104.367 41.9139 104.509 42.0927 104.623 42.3292L106.426 41.4638C106.196 40.9842 105.879 40.5685 105.473 40.2335L104.201 41.7763ZM104.626 42.3364C104.712 42.5122 104.782 42.7876 104.782 43.207H106.782C106.782 42.5809 106.68 41.9826 106.422 41.4566L104.626 42.3364ZM122.271 46V47H123.271V46H122.271ZM121.831 46L120.993 46.5463L121.289 47H121.831V46ZM121.025 44.7646L121.863 44.2184L121.087 43.0283L120.228 44.1605L121.025 44.7646ZM119.801 45.8281L120.274 46.7091L120.284 46.7035L119.801 45.8281ZM115.912 45.9248L115.511 46.841L115.52 46.8447L115.529 46.8483L115.912 45.9248ZM113.893 43.9053L112.971 44.294L112.976 44.3061L113.893 43.9053ZM113.893 32.6904L112.976 32.2896L112.971 32.3017L113.893 32.6904ZM115.912 30.6816L116.301 31.603L116.308 31.6001L115.912 30.6816ZM119.962 30.6816L119.561 31.5979L119.573 31.603L119.962 30.6816ZM121.971 32.6904L121.049 33.0792L121.055 33.0912L121.971 32.6904ZM122.271 34.7852L122.425 35.7733L123.271 35.6421V34.7852H122.271ZM120.886 35H119.886V36.167L121.039 35.9882L120.886 35ZM120.692 33.2061L119.773 33.6L119.777 33.608L120.692 33.2061ZM120.166 32.4219L120.873 31.7148L120.166 32.4219ZM119.382 31.8955L118.98 32.8112L118.988 32.8147L119.382 31.8955ZM116.492 31.8955L116.098 30.9763L116.09 30.9799L116.492 31.8955ZM115.708 32.4219L115.012 31.7036L115.007 31.7092L115.001 31.7148L115.708 32.4219ZM115.182 33.2061L116.097 33.6081L116.101 33.6L115.182 33.2061ZM115.182 43.4004L114.262 43.7943L114.266 43.8024L115.182 43.4004ZM115.708 44.1846L114.99 44.8804L115.001 44.8918L115.012 44.9028L115.708 44.1846ZM116.492 44.7109L116.09 45.6266L116.098 45.6301L116.492 44.7109ZM119.382 44.7109L118.988 43.7918L118.98 43.7953L119.382 44.7109ZM120.166 44.1846L120.873 44.8917L120.879 44.8861L120.884 44.8804L120.166 44.1846ZM120.692 43.4004L121.608 43.8024L121.612 43.7943L120.692 43.4004ZM120.886 39.2217H121.886V38.2217H120.886V39.2217ZM118.426 39.2217H117.426V40.2217H118.426V39.2217ZM118.426 37.9004V36.9004H117.426V37.9004H118.426ZM122.271 37.9004H123.271V36.9004H122.271V37.9004ZM122.271 45H121.831V47H122.271V45ZM122.669 45.4537L121.863 44.2184L120.188 45.3109L120.993 46.5463L122.669 45.4537ZM120.228 44.1605C119.975 44.4951 119.673 44.7564 119.317 44.9527L120.284 46.7035C120.888 46.3699 121.403 45.9222 121.822 45.3688L120.228 44.1605ZM119.327 44.9472C119.004 45.1208 118.635 45.2148 118.2 45.2148V47.2148C118.939 47.2148 119.638 47.0511 120.274 46.709L119.327 44.9472ZM118.2 45.2148H117.395V47.2148H118.2V45.2148ZM117.395 45.2148C116.998 45.2148 116.635 45.1423 116.296 45.0013L115.529 46.8483C116.12 47.094 116.745 47.2148 117.395 47.2148V45.2148ZM116.313 45.0086C115.965 44.8566 115.669 44.6543 115.416 44.4013L114.002 45.8155C114.436 46.25 114.942 46.5919 115.511 46.841L116.313 45.0086ZM115.416 44.4013C115.163 44.1483 114.961 43.8519 114.809 43.5045L112.976 44.3061C113.225 44.8753 113.567 45.381 114.002 45.8155L115.416 44.4013ZM114.814 43.5166C114.675 43.1875 114.603 42.8298 114.603 42.4336H112.603C112.603 43.083 112.723 43.7064 112.971 44.294L114.814 43.5166ZM114.603 42.4336V34.1621H112.603V42.4336H114.603ZM114.603 34.1621C114.603 33.7659 114.675 33.4082 114.814 33.0791L112.971 32.3017C112.723 32.8893 112.603 33.5127 112.603 34.1621H114.603ZM114.809 33.0912C114.961 32.7438 115.163 32.4474 115.416 32.1944L114.002 30.7802C113.567 31.2147 113.225 31.7204 112.976 32.2896L114.809 33.0912ZM115.416 32.1944C115.666 31.9441 115.959 31.7474 116.301 31.603L115.523 29.7603C114.949 30.0026 114.439 30.343 114.002 30.7802L115.416 32.1944ZM116.308 31.6001C116.644 31.4551 117.003 31.3809 117.395 31.3809V29.3809C116.74 29.3809 116.111 29.5072 115.516 29.7632L116.308 31.6001ZM117.395 31.3809H118.49V29.3809H117.395V31.3809ZM118.49 31.3809C118.881 31.3809 119.235 31.4551 119.561 31.5978L120.363 29.7655C119.772 29.5072 119.145 29.3809 118.49 29.3809V31.3809ZM119.573 31.603C119.915 31.7474 120.208 31.9441 120.458 32.1944L121.872 30.7802C121.435 30.343 120.925 30.0026 120.351 29.7603L119.573 31.603ZM120.458 32.1944C120.708 32.4447 120.905 32.7369 121.049 33.0791L122.892 32.3017C122.65 31.7273 122.309 31.2174 121.872 30.7802L120.458 32.1944ZM121.055 33.0912C121.197 33.4175 121.271 33.7709 121.271 34.1621H123.271C123.271 33.5077 123.145 32.88 122.887 32.2896L121.055 33.0912ZM121.271 34.1621V34.7852H123.271V34.1621H121.271ZM122.118 33.797L120.733 34.0118L121.039 35.9882L122.425 35.7733L122.118 33.797ZM121.886 35V34.1621H119.886V35H121.886ZM121.886 34.1621C121.886 33.6901 121.796 33.2333 121.608 32.8041L119.777 33.608C119.846 33.766 119.886 33.9466 119.886 34.1621H121.886ZM121.612 32.8121C121.435 32.3994 121.189 32.0305 120.873 31.7148L119.459 33.129C119.587 33.2572 119.692 33.4111 119.773 33.6L121.612 32.8121ZM120.873 31.7148C120.557 31.399 120.188 31.1532 119.776 30.9764L118.988 32.8147C119.177 32.8956 119.331 33.0007 119.459 33.129L120.873 31.7148ZM119.784 30.9799C119.355 30.7914 118.898 30.7021 118.426 30.7021V32.7021C118.641 32.7021 118.822 32.7418 118.98 32.8112L119.784 30.9799ZM118.426 30.7021H117.459V32.7021H118.426V30.7021ZM117.459 30.7021C116.987 30.7021 116.53 30.7914 116.098 30.9764L116.886 32.8147C117.056 32.7418 117.244 32.7021 117.459 32.7021V30.7021ZM116.09 30.9799C115.688 31.1563 115.327 31.3985 115.012 31.7036L116.404 33.1401C116.547 33.0013 116.709 32.8925 116.894 32.8112L116.09 30.9799ZM115.001 31.7148C114.685 32.0305 114.439 32.3994 114.262 32.8121L116.101 33.6C116.182 33.4111 116.287 33.2572 116.415 33.129L115.001 31.7148ZM114.266 32.8041C114.078 33.2333 113.988 33.6901 113.988 34.1621H115.988C115.988 33.9466 116.028 33.766 116.097 33.608L114.266 32.8041ZM113.988 34.1621V42.4336H115.988V34.1621H113.988ZM113.988 42.4336C113.988 42.9058 114.078 43.3628 114.262 43.7943L116.101 43.0065C116.028 42.8364 115.988 42.6489 115.988 42.4336H113.988ZM114.266 43.8024C114.442 44.2043 114.685 44.5653 114.99 44.8804L116.426 43.4888C116.287 43.3455 116.179 43.1837 116.097 42.9984L114.266 43.8024ZM115.012 44.9028C115.327 45.208 115.688 45.4501 116.09 45.6266L116.894 43.7953C116.709 43.7139 116.547 43.6052 116.404 43.4663L115.012 44.9028ZM116.098 45.6301C116.53 45.815 116.987 45.9043 117.459 45.9043V43.9043C117.244 43.9043 117.056 43.8647 116.886 43.7918L116.098 45.6301ZM117.459 45.9043H118.426V43.9043H117.459V45.9043ZM118.426 45.9043C118.898 45.9043 119.355 45.815 119.784 45.6266L118.98 43.7953C118.822 43.8646 118.641 43.9043 118.426 43.9043V45.9043ZM119.776 45.6301C120.188 45.4532 120.557 45.2074 120.873 44.8917L119.459 43.4775C119.331 43.6057 119.177 43.7108 118.988 43.7918L119.776 45.6301ZM120.884 44.8804C121.189 44.5653 121.432 44.2043 121.608 43.8024L119.777 42.9984C119.695 43.1837 119.587 43.3455 119.448 43.4888L120.884 44.8804ZM121.612 43.7943C121.796 43.3628 121.886 42.9058 121.886 42.4336H119.886C119.886 42.6489 119.846 42.8364 119.773 43.0065L121.612 43.7943ZM121.886 42.4336V39.2217H119.886V42.4336H121.886ZM120.886 38.2217H118.426V40.2217H120.886V38.2217ZM119.426 39.2217V37.9004H117.426V39.2217H119.426ZM118.426 38.9004H122.271V36.9004H118.426V38.9004ZM121.271 37.9004V46H123.271V37.9004H121.271ZM132.229 44.2383L131.313 43.8383L131.31 43.8454L131.307 43.8525L132.229 44.2383ZM131.542 45.2695L130.835 44.5624L131.542 45.2695ZM130.511 45.9678L130.897 46.8904L130.904 46.8874L130.911 46.8843L130.511 45.9678ZM127.116 45.9678L126.716 46.8843L126.723 46.8874L126.73 46.8904L127.116 45.9678ZM126.085 45.2695L125.378 45.9766L126.085 45.2695ZM125.387 44.2383L124.464 44.6241L124.467 44.6312L124.47 44.6382L125.387 44.2383ZM125.387 36.7617L124.47 36.3618L124.467 36.3688L124.464 36.3759L125.387 36.7617ZM126.085 35.7305L125.378 35.0234L126.085 35.7305ZM127.116 35.043L127.502 35.9655L127.509 35.9626L127.516 35.9595L127.116 35.043ZM130.511 35.043L130.111 35.9595L130.118 35.9626L130.125 35.9655L130.511 35.043ZM131.542 35.7305L130.835 36.4376L131.542 35.7305ZM132.229 36.7617L131.307 37.1475L131.31 37.1546L131.313 37.1617L132.229 36.7617ZM132.487 40.6074V41.6074H133.487V40.6074H132.487ZM126.461 40.6074V39.6074H125.461V40.6074H126.461ZM126.611 43.8086L125.691 44.1992L125.695 44.2094L126.611 43.8086ZM127.621 44.8184L127.22 45.7346L127.231 45.7389L127.621 44.8184ZM129.995 44.8184L129.605 43.8977L129.594 43.9022L129.995 44.8184ZM131.016 43.8086L131.932 44.2094L131.936 44.1991L131.016 43.8086ZM131.166 42.3262L131.327 41.3391L130.166 41.1504V42.3262H131.166ZM132.487 42.541H133.487V41.6905L132.648 41.554L132.487 42.541ZM131.016 37.2021L130.095 37.5927L130.099 37.603L131.016 37.2021ZM129.995 36.1816L129.594 37.0979L129.605 37.1022L129.995 36.1816ZM127.621 36.1816L127.231 35.261L127.22 35.2655L127.621 36.1816ZM126.611 37.2021L127.528 37.603L127.532 37.5927L126.611 37.2021ZM126.461 39.5762H125.461V40.5762H126.461V39.5762ZM131.166 39.5762V40.5762H132.166V39.5762H131.166ZM131.487 42.9814C131.487 43.2925 131.428 43.5748 131.313 43.8383L133.146 44.6382C133.375 44.114 133.487 43.5584 133.487 42.9814H131.487ZM131.307 43.8525C131.191 44.1297 131.034 44.3635 130.835 44.5624L132.249 45.9766C132.637 45.5884 132.939 45.1346 133.152 44.6241L131.307 43.8525ZM130.835 44.5624C130.633 44.7646 130.394 44.9276 130.111 45.0512L130.911 46.8843C131.415 46.6642 131.864 46.3617 132.249 45.9766L130.835 44.5624ZM130.125 45.0452C129.858 45.1568 129.571 45.2148 129.254 45.2148V47.2148C129.825 47.2148 130.376 47.1082 130.897 46.8904L130.125 45.0452ZM129.254 45.2148H128.373V47.2148H129.254V45.2148ZM128.373 45.2148C128.056 45.2148 127.769 45.1568 127.502 45.0452L126.73 46.8904C127.251 47.1082 127.802 47.2148 128.373 47.2148V45.2148ZM127.516 45.0512C127.233 44.9276 126.994 44.7646 126.792 44.5624L125.378 45.9766C125.763 46.3617 126.212 46.6642 126.716 46.8843L127.516 45.0512ZM126.792 44.5624C126.59 44.3603 126.427 44.1217 126.303 43.8383L124.47 44.6382C124.69 45.1426 124.993 45.5915 125.378 45.9766L126.792 44.5624ZM126.309 43.8525C126.198 43.5857 126.14 43.2984 126.14 42.9814H124.14C124.14 43.5525 124.246 44.1031 124.464 44.6241L126.309 43.8525ZM126.14 42.9814V38.0186H124.14V42.9814H126.14ZM126.14 38.0186C126.14 37.7016 126.198 37.4143 126.309 37.1475L124.464 36.3759C124.246 36.8969 124.14 37.4475 124.14 38.0186H126.14ZM126.303 37.1617C126.427 36.8783 126.59 36.6397 126.792 36.4376L125.378 35.0234C124.993 35.4085 124.69 35.8574 124.47 36.3618L126.303 37.1617ZM126.792 36.4376C126.991 36.2386 127.225 36.0815 127.502 35.9655L126.73 34.1204C126.22 34.3339 125.766 34.6351 125.378 35.0234L126.792 36.4376ZM127.516 35.9595C127.78 35.8445 128.062 35.7852 128.373 35.7852V33.7852C127.796 33.7852 127.241 33.8977 126.716 34.1264L127.516 35.9595ZM128.373 35.7852H129.254V33.7852H128.373V35.7852ZM129.254 35.7852C129.565 35.7852 129.847 35.8445 130.111 35.9595L130.911 34.1264C130.386 33.8977 129.831 33.7852 129.254 33.7852V35.7852ZM130.125 35.9655C130.402 36.0815 130.636 36.2386 130.835 36.4376L132.249 35.0234C131.861 34.6351 131.407 34.3339 130.897 34.1204L130.125 35.9655ZM130.835 36.4376C131.034 36.6365 131.191 36.8703 131.307 37.1475L133.152 36.3759C132.939 35.8654 132.637 35.4116 132.249 35.0234L130.835 36.4376ZM131.313 37.1617C131.428 37.4252 131.487 37.7075 131.487 38.0186H133.487C133.487 37.4416 133.375 36.886 133.146 36.3618L131.313 37.1617ZM131.487 38.0186V40.6074H133.487V38.0186H131.487ZM132.487 39.6074H126.461V41.6074H132.487V39.6074ZM125.461 40.6074V43.0566H127.461V40.6074H125.461ZM125.461 43.0566C125.461 43.4514 125.536 43.8353 125.691 44.1991L127.532 43.418C127.486 43.3093 127.461 43.1918 127.461 43.0566H125.461ZM125.695 44.2094C125.844 44.5494 126.05 44.8546 126.312 45.1173L127.727 43.703C127.646 43.6219 127.579 43.5261 127.527 43.4078L125.695 44.2094ZM126.312 45.1173C126.575 45.3799 126.88 45.5858 127.22 45.7345L128.022 43.9022C127.904 43.8504 127.808 43.7842 127.727 43.703L126.312 45.1173ZM127.231 45.7389C127.594 45.8933 127.978 45.9688 128.373 45.9688V43.9688C128.238 43.9688 128.12 43.9439 128.012 43.8978L127.231 45.7389ZM128.373 45.9688H129.254V43.9688H128.373V45.9688ZM129.254 45.9688C129.649 45.9688 130.033 45.8933 130.396 45.7345L129.594 43.9022C129.499 43.9439 129.389 43.9688 129.254 43.9688V45.9688ZM130.386 45.7389C130.734 45.5914 131.047 45.385 131.315 45.1173L129.9 43.703C129.824 43.7791 129.729 43.8448 129.605 43.8978L130.386 45.7389ZM131.315 45.1173C131.577 44.8546 131.783 44.5494 131.932 44.2094L130.099 43.4078C130.048 43.5261 129.981 43.6219 129.9 43.703L131.315 45.1173ZM131.936 44.1991C132.091 43.8353 132.166 43.4514 132.166 43.0566H130.166C130.166 43.1918 130.141 43.3093 130.095 43.418L131.936 44.1991ZM132.166 43.0566V42.3262H130.166V43.0566H132.166ZM131.006 43.3132L132.327 43.5281L132.648 41.554L131.327 41.3391L131.006 43.3132ZM131.487 42.541V42.9814H133.487V42.541H131.487ZM132.166 37.9434C132.166 37.5487 132.091 37.1643 131.932 36.8013L130.099 37.603C130.141 37.6983 130.166 37.808 130.166 37.9434H132.166ZM131.936 36.8116C131.789 36.4638 131.582 36.1505 131.315 35.8827L129.9 37.297C129.976 37.373 130.042 37.4679 130.095 37.5927L131.936 36.8116ZM131.315 35.8827C131.047 35.615 130.734 35.4086 130.386 35.2611L129.605 37.1022C129.729 37.1552 129.824 37.2209 129.9 37.297L131.315 35.8827ZM130.396 35.2655C130.033 35.1067 129.649 35.0312 129.254 35.0312V37.0312C129.389 37.0312 129.499 37.0561 129.594 37.0978L130.396 35.2655ZM129.254 35.0312H128.373V37.0312H129.254V35.0312ZM128.373 35.0312C127.978 35.0312 127.594 35.1067 127.231 35.2611L128.012 37.1022C128.12 37.0561 128.238 37.0312 128.373 37.0312V35.0312ZM127.22 35.2655C126.88 35.4142 126.575 35.6201 126.312 35.8827L127.727 37.297C127.808 37.2158 127.904 37.1496 128.022 37.0978L127.22 35.2655ZM126.312 35.8827C126.045 36.1505 125.838 36.4638 125.691 36.8116L127.532 37.5927C127.585 37.4679 127.651 37.373 127.727 37.297L126.312 35.8827ZM125.695 36.8013C125.536 37.1643 125.461 37.5487 125.461 37.9434H127.461C127.461 37.808 127.486 37.6983 127.527 37.603L125.695 36.8013ZM125.461 37.9434V39.5762H127.461V37.9434H125.461ZM126.461 40.5762H131.166V38.5762H126.461V40.5762ZM132.166 39.5762V37.9434H130.166V39.5762H132.166ZM137.998 45.7744L137.604 46.6936L137.611 46.6964L137.998 45.7744ZM137.074 45.1514L136.357 45.8488L136.367 45.8585L137.074 45.1514ZM136.451 44.2275L135.532 44.6215L135.535 44.6293L135.539 44.6371L136.451 44.2275ZM136.226 36.2568H137.226V35.2568H136.226V36.2568ZM134.249 36.2568H133.249V37.2568H134.249V36.2568ZM134.249 35V34H133.249V35H134.249ZM136.226 35V36H137.226V35H136.226ZM136.226 32.3574L136.065 31.3704L135.226 31.5069V32.3574H136.226ZM137.547 32.1426H138.547V30.9668L137.386 31.1555L137.547 32.1426ZM137.547 35H136.547V36H137.547V35ZM140.34 35H141.34V34H140.34V35ZM140.34 36.2568V37.2568H141.34V36.2568H140.34ZM137.547 36.2568V35.2568H136.547V36.2568H137.547ZM137.665 43.7871L136.739 44.1644L136.748 44.1855L136.757 44.2062L137.665 43.7871ZM138.514 44.625L138.108 45.5388L138.122 45.5452L138.136 45.5511L138.514 44.625ZM140.34 44.7432H141.34V43.7432H140.34V44.7432ZM140.34 46V47H141.34V46H140.34ZM139.137 45C138.864 45 138.617 44.9496 138.385 44.8524L137.611 46.6964C138.096 46.9 138.607 47 139.137 47V45ZM138.392 44.8553C138.156 44.754 137.955 44.6176 137.781 44.4443L136.367 45.8585C136.724 46.2151 137.139 46.494 137.604 46.6936L138.392 44.8553ZM137.791 44.454C137.618 44.2762 137.475 44.0666 137.363 43.8179L135.539 44.6371C135.742 45.0903 136.015 45.4966 136.357 45.8487L137.791 44.454ZM137.37 43.8336C137.276 43.6134 137.226 43.3722 137.226 43.0996H135.226C135.226 43.6291 135.326 44.1398 135.532 44.6215L137.37 43.8336ZM137.226 43.0996V36.2568H135.226V43.0996H137.226ZM136.226 35.2568H134.249V37.2568H136.226V35.2568ZM135.249 36.2568V35H133.249V36.2568H135.249ZM134.249 36H136.226V34H134.249V36ZM137.226 35V32.3574H135.226V35H137.226ZM136.386 33.3445L137.707 33.1296L137.386 31.1555L136.065 31.3704L136.386 33.3445ZM136.547 32.1426V35H138.547V32.1426H136.547ZM137.547 36H140.34V34H137.547V36ZM139.34 35V36.2568H141.34V35H139.34ZM140.34 35.2568H137.547V37.2568H140.34V35.2568ZM136.547 36.2568V43.1641H138.547V36.2568H136.547ZM136.547 43.1641C136.547 43.5071 136.608 43.8438 136.739 44.1644L138.591 43.4098C138.564 43.3437 138.547 43.265 138.547 43.1641H136.547ZM136.757 44.2062C136.892 44.4981 137.074 44.7607 137.302 44.9884L138.716 43.5741C138.657 43.5154 138.61 43.4485 138.573 43.3681L136.757 44.2062ZM137.302 44.9884C137.536 45.2222 137.807 45.4053 138.108 45.5388L138.92 43.7112C138.834 43.6728 138.768 43.6267 138.716 43.5741L137.302 44.9884ZM138.136 45.5511C138.457 45.6817 138.794 45.7432 139.137 45.7432V43.7432C139.036 43.7432 138.957 43.7258 138.891 43.6989L138.136 45.5511ZM139.137 45.7432H140.34V43.7432H139.137V45.7432ZM139.34 44.7432V46H141.34V44.7432H139.34ZM140.34 45H139.137V47H140.34V45ZM156.41 43.9053L155.505 43.4808L155.499 43.4925L156.41 43.9053ZM155.562 45.1084L154.869 44.387L154.862 44.394L155.562 45.1084ZM154.326 45.9248L154.71 46.8483L154.717 46.8454L154.326 45.9248ZM150.244 45.9248L149.849 46.8432L149.857 46.8469L149.866 46.8504L150.244 45.9248ZM149.009 45.1084L148.309 45.8228L148.316 45.8298L149.009 45.1084ZM148.16 43.9053L147.249 44.318L147.255 44.3297L148.16 43.9053ZM147.849 41.8213L147.688 40.8343L146.849 40.9709V41.8213H147.849ZM149.234 41.5957H150.234V40.4197L149.074 40.6087L149.234 41.5957ZM149.438 43.4004L148.527 43.8126L148.533 43.8258L148.54 43.8388L149.438 43.4004ZM150.008 44.1846L149.312 44.9025L149.317 44.908L149.323 44.9134L150.008 44.1846ZM150.824 44.7109L150.438 45.6334L150.446 45.6365L150.824 44.7109ZM154.573 44.1846L155.258 44.9134L155.264 44.908L155.269 44.9025L154.573 44.1846ZM155.132 43.4004L154.229 42.9704L154.225 42.9799L155.132 43.4004ZM155.035 40.6504L155.896 40.1411L155.035 40.6504ZM154.208 39.7588L153.619 40.5669L153.63 40.5748L154.208 39.7588ZM153.037 39.125L152.666 40.0535L152.671 40.0556L153.037 39.125ZM150.362 38.04L149.927 38.9404L149.933 38.9432L150.362 38.04ZM149.202 37.2666L148.526 38.0038L148.535 38.0114L149.202 37.2666ZM148.375 36.1172L147.467 36.5353L148.375 36.1172ZM148.354 32.6904L147.437 32.2896L147.432 32.3017L148.354 32.6904ZM150.373 30.6816L150.762 31.603L150.769 31.6001L150.373 30.6816ZM154.315 30.6816L153.915 31.5979L153.927 31.603L154.315 30.6816ZM156.324 32.6904L155.403 33.0792L155.408 33.0912L156.324 32.6904ZM156.625 34.5596L156.786 35.5466L157.625 35.4099V34.5596H156.625ZM155.239 34.7852H154.239V35.9611L155.4 35.7722L155.239 34.7852ZM155.046 33.2061L154.127 33.6L154.13 33.608L155.046 33.2061ZM154.52 32.4219L155.227 31.7148L154.52 32.4219ZM153.735 31.8955L153.333 32.8112L153.341 32.8147L153.735 31.8955ZM150.953 31.8955L150.559 30.9763L150.551 30.9799L150.953 31.8955ZM150.169 32.4219L149.473 31.7036L149.467 31.7092L149.462 31.7148L150.169 32.4219ZM149.643 33.2061L150.558 33.6081L150.562 33.6L149.643 33.2061ZM150.588 36.5684L150.01 37.3845L150.021 37.3924L150.588 36.5684ZM151.748 37.1914L151.363 38.1145L151.373 38.1183L151.382 38.122L151.748 37.1914ZM153.091 37.7285L152.714 38.6551L152.727 38.66L153.091 37.7285ZM154.423 38.3301L153.964 39.2185L153.973 39.2231L153.982 39.2274L154.423 38.3301ZM155.594 39.1357L154.91 39.8653L154.918 39.8729L155.594 39.1357ZM156.421 40.2959L157.332 39.8832L156.421 40.2959ZM155.732 42.4336C155.732 42.8146 155.655 43.1597 155.505 43.4808L157.316 44.3297C157.595 43.7341 157.732 43.0981 157.732 42.4336H155.732ZM155.499 43.4925C155.343 43.8367 155.134 44.1326 154.869 44.387L156.254 45.8298C156.705 45.3967 157.062 44.8905 157.321 44.318L155.499 43.4925ZM154.862 44.394C154.604 44.6464 154.299 44.8503 153.936 45.0042L154.717 46.8454C155.299 46.5983 155.817 46.2579 156.261 45.8228L154.862 44.394ZM153.943 45.0013C153.603 45.1423 153.24 45.2148 152.844 45.2148V47.2148C153.493 47.2148 154.118 47.094 154.71 46.8483L153.943 45.0013ZM152.844 45.2148H151.737V47.2148H152.844V45.2148ZM151.737 45.2148C151.341 45.2148 150.972 45.1423 150.623 44.9993L149.866 46.8504C150.461 47.0941 151.088 47.2148 151.737 47.2148V45.2148ZM150.64 45.0064C150.282 44.8522 149.971 44.6461 149.701 44.387L148.316 45.8298C148.763 46.2582 149.275 46.5963 149.849 46.8432L150.64 45.0064ZM149.709 44.394C149.446 44.1364 149.231 43.8344 149.066 43.4808L147.255 44.3297C147.519 44.8928 147.87 45.3929 148.309 45.8228L149.709 44.394ZM149.071 43.4925C148.924 43.1689 148.849 42.8197 148.849 42.4336H146.849C146.849 43.0931 146.981 43.7249 147.249 44.318L149.071 43.4925ZM148.849 42.4336V41.8213H146.849V42.4336H148.849ZM148.009 42.8083L149.395 42.5827L149.074 40.6087L147.688 40.8343L148.009 42.8083ZM148.234 41.5957V42.4336H150.234V41.5957H148.234ZM148.234 42.4336C148.234 42.9135 148.33 43.3769 148.527 43.8126L150.35 42.9882C150.275 42.8223 150.234 42.6412 150.234 42.4336H148.234ZM148.54 43.8388C148.734 44.2374 148.993 44.5932 149.312 44.9025L150.704 43.4667C150.55 43.3176 150.429 43.1506 150.337 42.962L148.54 43.8388ZM149.323 44.9134C149.649 45.2197 150.023 45.4597 150.438 45.6334L151.21 43.7885C151.009 43.7044 150.839 43.5934 150.692 43.4557L149.323 44.9134ZM150.446 45.6365C150.882 45.815 151.34 45.9043 151.812 45.9043V43.9043C151.597 43.9043 151.397 43.8646 151.203 43.7854L150.446 45.6365ZM151.812 45.9043H152.779V43.9043H151.812V45.9043ZM152.779 45.9043C153.252 45.9043 153.709 45.815 154.143 45.6334L153.371 43.7885C153.189 43.8647 152.994 43.9043 152.779 43.9043V45.9043ZM154.143 45.6334C154.558 45.4597 154.932 45.2197 155.258 44.9134L153.889 43.4557C153.742 43.5934 153.572 43.7044 153.371 43.7885L154.143 45.6334ZM155.269 44.9025C155.592 44.5894 155.851 44.2277 156.039 43.8209L154.225 42.9799C154.141 43.1604 154.027 43.3214 153.877 43.4667L155.269 44.9025ZM156.035 43.8303C156.244 43.3909 156.347 42.9212 156.347 42.4336H154.347C154.347 42.6335 154.306 42.8083 154.229 42.9705L156.035 43.8303ZM156.347 42.4336V41.9717H154.347V42.4336H156.347ZM156.347 41.9717C156.347 41.315 156.218 40.6858 155.896 40.1411L154.175 41.1597C154.268 41.3168 154.347 41.5684 154.347 41.9717H156.347ZM155.896 40.1411C155.614 39.6652 155.241 39.2647 154.786 38.9428L153.63 40.5748C153.863 40.7398 154.041 40.9338 154.175 41.1597L155.896 40.1411ZM154.797 38.9508C154.378 38.6451 153.911 38.3943 153.403 38.1944L152.671 40.0556C153.037 40.1994 153.351 40.3712 153.619 40.5668L154.797 38.9508ZM153.409 38.1965C152.972 38.0218 152.521 37.8473 152.056 37.673L151.354 39.5457C151.806 39.7152 152.243 39.8844 152.666 40.0535L153.409 38.1965ZM152.056 37.673C151.624 37.511 151.203 37.3323 150.792 37.1369L149.933 38.9432C150.396 39.1632 150.869 39.364 151.354 39.5457L152.056 37.673ZM150.797 37.1397C150.449 36.9713 150.141 36.7652 149.869 36.5218L148.535 38.0114C148.951 38.3839 149.416 38.6934 149.927 38.9404L150.797 37.1397ZM149.878 36.5294C149.638 36.3099 149.439 36.0374 149.283 35.699L147.467 36.5353C147.726 37.0993 148.078 37.5931 148.526 38.0038L149.878 36.5294ZM149.283 35.699C149.152 35.4144 149.063 35.0115 149.063 34.4521H147.063C147.063 35.2105 147.182 35.9176 147.467 36.5353L149.283 35.699ZM149.063 34.4521V34.1621H147.063V34.4521H149.063ZM149.063 34.1621C149.063 33.7659 149.136 33.4082 149.275 33.0791L147.432 32.3017C147.184 32.8893 147.063 33.5127 147.063 34.1621H149.063ZM149.27 33.0912C149.422 32.7438 149.624 32.4474 149.877 32.1944L148.463 30.7802C148.028 31.2147 147.686 31.7204 147.437 32.2896L149.27 33.0912ZM149.877 32.1944C150.127 31.9441 150.42 31.7474 150.762 31.603L149.984 29.7603C149.41 30.0026 148.9 30.343 148.463 30.7802L149.877 32.1944ZM150.769 31.6001C151.105 31.4551 151.464 31.3809 151.855 31.3809V29.3809C151.201 29.3809 150.572 29.5072 149.977 29.7632L150.769 31.6001ZM151.855 31.3809H152.844V29.3809H151.855V31.3809ZM152.844 31.3809C153.235 31.3809 153.588 31.4551 153.915 31.5978L154.716 29.7655C154.126 29.5072 153.498 29.3809 152.844 29.3809V31.3809ZM153.927 31.603C154.269 31.7474 154.561 31.9441 154.811 32.1944L156.226 30.7802C155.788 30.343 155.279 30.0026 154.704 29.7603L153.927 31.603ZM154.811 32.1944C155.062 32.4447 155.258 32.7369 155.403 33.0791L157.246 32.3017C157.003 31.7273 156.663 31.2174 156.226 30.7802L154.811 32.1944ZM155.408 33.0912C155.551 33.4175 155.625 33.7709 155.625 34.1621H157.625C157.625 33.5077 157.499 32.88 157.24 32.2896L155.408 33.0912ZM155.625 34.1621V34.5596H157.625V34.1621H155.625ZM156.464 33.5726L155.079 33.7981L155.4 35.7722L156.786 35.5466L156.464 33.5726ZM156.239 34.7852V34.1621H154.239V34.7852H156.239ZM156.239 34.1621C156.239 33.6901 156.15 33.2333 155.962 32.8041L154.13 33.608C154.2 33.766 154.239 33.9466 154.239 34.1621H156.239ZM155.965 32.8121C155.788 32.3994 155.542 32.0305 155.227 31.7148L153.812 33.129C153.941 33.2572 154.046 33.4111 154.127 33.6L155.965 32.8121ZM155.227 31.7148C154.911 31.399 154.542 31.1532 154.129 30.9764L153.341 32.8147C153.53 32.8956 153.684 33.0007 153.812 33.129L155.227 31.7148ZM154.137 30.9799C153.708 30.7914 153.251 30.7021 152.779 30.7021V32.7021C152.995 32.7021 153.175 32.7418 153.333 32.8112L154.137 30.9799ZM152.779 30.7021H151.92V32.7021H152.779V30.7021ZM151.92 30.7021C151.448 30.7021 150.991 30.7914 150.559 30.9764L151.347 32.8147C151.517 32.7418 151.705 32.7021 151.92 32.7021V30.7021ZM150.551 30.9799C150.149 31.1563 149.788 31.3985 149.473 31.7036L150.865 33.1401C151.008 33.0013 151.17 32.8925 151.355 32.8112L150.551 30.9799ZM149.462 31.7148C149.146 32.0305 148.9 32.3994 148.723 32.8121L150.562 33.6C150.643 33.4111 150.748 33.2572 150.876 33.129L149.462 31.7148ZM148.727 32.8041C148.538 33.2333 148.449 33.6901 148.449 34.1621H150.449C150.449 33.9466 150.489 33.766 150.558 33.608L148.727 32.8041ZM148.449 34.1621V34.4521H150.449V34.1621H148.449ZM148.449 34.4521C148.449 35.0858 148.583 35.6939 148.91 36.2233L150.612 35.1731C150.523 35.0294 150.449 34.8068 150.449 34.4521H148.449ZM148.91 36.2233C149.192 36.6816 149.564 37.0684 150.01 37.3844L151.166 35.7523C150.925 35.5814 150.744 35.3881 150.612 35.1731L148.91 36.2233ZM150.021 37.3924C150.428 37.6722 150.877 37.9118 151.363 38.1145L152.133 36.2683C151.76 36.1129 151.435 35.9372 151.154 35.7443L150.021 37.3924ZM151.382 38.122C151.815 38.2924 152.259 38.4701 152.714 38.655L153.467 36.802C153.006 36.6145 152.555 36.4341 152.114 36.2608L151.382 38.122ZM152.727 38.66C153.153 38.8266 153.566 39.0128 153.964 39.2185L154.882 37.4417C154.421 37.2034 153.945 36.9886 153.455 36.7971L152.727 38.66ZM153.982 39.2274C154.333 39.4001 154.641 39.6129 154.91 39.8653L156.278 38.4062C155.859 38.0141 155.387 37.6897 154.864 37.4327L153.982 39.2274ZM154.918 39.8729C155.155 40.0898 155.354 40.3634 155.51 40.7086L157.332 39.8832C157.073 39.3118 156.72 38.8119 156.269 38.3986L154.918 39.8729ZM155.51 40.7086C155.644 41.0038 155.732 41.4131 155.732 41.9717H157.732C157.732 41.2126 157.613 40.5047 157.332 39.8832L155.51 40.7086ZM155.732 41.9717V42.4336H157.732V41.9717H155.732ZM162.146 45.7744L161.753 46.6936L161.759 46.6964L162.146 45.7744ZM161.223 45.1514L160.506 45.8488L160.516 45.8585L161.223 45.1514ZM160.6 44.2275L159.68 44.6215L159.684 44.6293L159.687 44.6371L160.6 44.2275ZM160.374 36.2568H161.374V35.2568H160.374V36.2568ZM158.397 36.2568H157.397V37.2568H158.397V36.2568ZM158.397 35V34H157.397V35H158.397ZM160.374 35V36H161.374V35H160.374ZM160.374 32.3574L160.214 31.3704L159.374 31.5069V32.3574H160.374ZM161.695 32.1426H162.695V30.9668L161.535 31.1555L161.695 32.1426ZM161.695 35H160.695V36H161.695V35ZM164.488 35H165.488V34H164.488V35ZM164.488 36.2568V37.2568H165.488V36.2568H164.488ZM161.695 36.2568V35.2568H160.695V36.2568H161.695ZM161.813 43.7871L160.887 44.1644L160.896 44.1855L160.906 44.2062L161.813 43.7871ZM162.662 44.625L162.256 45.5388L162.27 45.5452L162.285 45.5511L162.662 44.625ZM164.488 44.7432H165.488V43.7432H164.488V44.7432ZM164.488 46V47H165.488V46H164.488ZM163.285 45C163.013 45 162.765 44.9496 162.534 44.8524L161.759 46.6964C162.244 46.9 162.756 47 163.285 47V45ZM162.54 44.8553C162.304 44.754 162.103 44.6176 161.93 44.4443L160.516 45.8585C160.872 46.2151 161.287 46.494 161.753 46.6936L162.54 44.8553ZM161.939 44.454C161.766 44.2762 161.624 44.0666 161.512 43.8179L159.687 44.6371C159.891 45.0903 160.163 45.4966 160.506 45.8487L161.939 44.454ZM161.519 43.8336C161.424 43.6134 161.374 43.3722 161.374 43.0996H159.374C159.374 43.6291 159.474 44.1398 159.68 44.6215L161.519 43.8336ZM161.374 43.0996V36.2568H159.374V43.0996H161.374ZM160.374 35.2568H158.397V37.2568H160.374V35.2568ZM159.397 36.2568V35H157.397V36.2568H159.397ZM158.397 36H160.374V34H158.397V36ZM161.374 35V32.3574H159.374V35H161.374ZM160.535 33.3445L161.856 33.1296L161.535 31.1555L160.214 31.3704L160.535 33.3445ZM160.695 32.1426V35H162.695V32.1426H160.695ZM161.695 36H164.488V34H161.695V36ZM163.488 35V36.2568H165.488V35H163.488ZM164.488 35.2568H161.695V37.2568H164.488V35.2568ZM160.695 36.2568V43.1641H162.695V36.2568H160.695ZM160.695 43.1641C160.695 43.5071 160.757 43.8438 160.887 44.1644L162.74 43.4098C162.713 43.3437 162.695 43.265 162.695 43.1641H160.695ZM160.906 44.2062C161.04 44.4981 161.222 44.7607 161.45 44.9884L162.864 43.5741C162.806 43.5154 162.759 43.4485 162.721 43.3681L160.906 44.2062ZM161.45 44.9884C161.684 45.2222 161.956 45.4053 162.256 45.5388L163.068 43.7112C162.982 43.6728 162.917 43.6267 162.864 43.5741L161.45 44.9884ZM162.285 45.5511C162.605 45.6817 162.942 45.7432 163.285 45.7432V43.7432C163.184 43.7432 163.106 43.7258 163.039 43.6989L162.285 45.5511ZM163.285 45.7432H164.488V43.7432H163.285V45.7432ZM163.488 44.7432V46H165.488V44.7432H163.488ZM164.488 45H163.285V47H164.488V45ZM173.834 46L173.002 46.5547L173.299 47H173.834V46ZM173.104 44.9043L173.936 44.3496L173.159 43.1843L172.309 44.2974L173.104 44.9043ZM171.976 45.8604L172.44 46.7463L172.451 46.7404L171.976 45.8604ZM168.903 45.9678L168.503 46.8843L168.51 46.8874L168.518 46.8904L168.903 45.9678ZM167.872 45.2695L167.165 45.9766L167.872 45.2695ZM167.174 44.2383L166.251 44.6241L166.254 44.6312L166.257 44.6382L167.174 44.2383ZM167.174 41.6172L166.257 41.2172L166.254 41.2243L166.251 41.2314L167.174 41.6172ZM167.872 40.5859L168.579 41.293L167.872 40.5859ZM168.903 39.8984L169.289 40.821L169.296 40.8181L169.303 40.815L168.903 39.8984ZM172.953 39.6406V40.6406H173.953V39.6406H172.953ZM172.803 37.2021L171.882 37.5927L171.887 37.603L172.803 37.2021ZM171.782 36.1816L171.381 37.0979L171.392 37.1022L171.782 36.1816ZM169.516 36.1816L169.125 35.261L169.115 35.2655L169.516 36.1816ZM168.506 37.2021L169.422 37.603L169.426 37.5927L168.506 37.2021ZM168.355 38.3408L168.195 39.3279L169.355 39.5166V38.3408H168.355ZM167.034 38.126H166.034V38.9765L166.874 39.113L167.034 38.126ZM167.281 36.7617L166.365 36.3618L166.362 36.3688L166.359 36.3759L167.281 36.7617ZM169.011 35.043L169.397 35.9655L169.404 35.9626L169.411 35.9595L169.011 35.043ZM172.298 35.043L171.898 35.9595L171.905 35.9626L171.912 35.9655L172.298 35.043ZM173.329 35.7305L172.622 36.4376L173.329 35.7305ZM174.017 36.7617L173.094 37.1475L173.097 37.1546L173.1 37.1617L174.017 36.7617ZM174.274 46V47H175.274V46H174.274ZM172.953 40.6719H173.953V39.6719H172.953V40.6719ZM169.408 40.8223L169.018 39.9016L169.007 39.9061L169.408 40.8223ZM168.807 41.2412L169.514 41.9483L169.521 41.9411L169.528 41.9337L168.807 41.2412ZM168.398 41.8535L169.315 42.2544L169.319 42.2441L168.398 41.8535ZM168.398 43.8086L167.478 44.1992L167.482 44.2094L168.398 43.8086ZM169.408 44.8184L169.007 45.7346L169.018 45.7389L169.408 44.8184ZM171.782 44.8184L171.392 43.8977L171.381 43.9022L171.782 44.8184ZM172.803 43.8086L173.719 44.2094L173.723 44.1991L172.803 43.8086ZM174.666 45.4453L173.936 44.3496L172.271 45.459L173.002 46.5547L174.666 45.4453ZM172.309 44.2974C172.097 44.5747 171.831 44.8018 171.501 44.9803L172.451 46.7404C173.022 46.4319 173.508 46.0217 173.898 45.5112L172.309 44.2974ZM171.512 44.9745C171.211 45.1317 170.878 45.2148 170.493 45.2148V47.2148C171.183 47.2148 171.837 47.0616 172.44 46.7462L171.512 44.9745ZM170.493 45.2148H170.16V47.2148H170.493V45.2148ZM170.16 45.2148C169.843 45.2148 169.556 45.1568 169.289 45.0452L168.518 46.8904C169.038 47.1082 169.589 47.2148 170.16 47.2148V45.2148ZM169.303 45.0512C169.02 44.9276 168.781 44.7646 168.579 44.5624L167.165 45.9766C167.55 46.3617 167.999 46.6642 168.503 46.8843L169.303 45.0512ZM168.579 44.5624C168.377 44.3603 168.214 44.1217 168.09 43.8383L166.257 44.6382C166.477 45.1426 166.78 45.5915 167.165 45.9766L168.579 44.5624ZM168.096 43.8525C167.985 43.5857 167.927 43.2984 167.927 42.9814H165.927C165.927 43.5525 166.033 44.1031 166.251 44.6241L168.096 43.8525ZM167.927 42.9814V42.874H165.927V42.9814H167.927ZM167.927 42.874C167.927 42.5571 167.985 42.2698 168.096 42.003L166.251 41.2314C166.033 41.7524 165.927 42.303 165.927 42.874H167.927ZM168.09 42.0171C168.214 41.7338 168.377 41.4952 168.579 41.293L167.165 39.8788C166.78 40.2639 166.477 40.7129 166.257 41.2172L168.09 42.0171ZM168.579 41.293C168.778 41.0941 169.012 40.937 169.289 40.821L168.518 38.9759C168.007 39.1894 167.553 39.4905 167.165 39.8788L168.579 41.293ZM169.303 40.815C169.567 40.7 169.849 40.6406 170.16 40.6406V38.6406C169.583 38.6406 169.028 38.7531 168.503 38.9819L169.303 40.815ZM170.16 40.6406H172.953V38.6406H170.16V40.6406ZM173.953 39.6406V37.9434H171.953V39.6406H173.953ZM173.953 37.9434C173.953 37.5487 173.878 37.1643 173.719 36.8013L171.887 37.603C171.928 37.6983 171.953 37.808 171.953 37.9434H173.953ZM173.723 36.8116C173.576 36.4638 173.369 36.1505 173.102 35.8827L171.687 37.297C171.763 37.373 171.829 37.4679 171.882 37.5927L173.723 36.8116ZM173.102 35.8827C172.834 35.615 172.521 35.4086 172.173 35.2611L171.392 37.1022C171.516 37.1552 171.611 37.2209 171.687 37.297L173.102 35.8827ZM172.183 35.2655C171.82 35.1067 171.436 35.0312 171.041 35.0312V37.0312C171.176 37.0312 171.286 37.0561 171.381 37.0978L172.183 35.2655ZM171.041 35.0312H170.268V37.0312H171.041V35.0312ZM170.268 35.0312C169.873 35.0312 169.489 35.1067 169.125 35.2611L169.906 37.1022C170.015 37.0561 170.132 37.0312 170.268 37.0312V35.0312ZM169.115 35.2655C168.775 35.4142 168.47 35.6201 168.207 35.8827L169.621 37.297C169.702 37.2158 169.798 37.1496 169.916 37.0978L169.115 35.2655ZM168.207 35.8827C167.939 36.1505 167.733 36.4638 167.585 36.8116L169.426 37.5927C169.479 37.4679 169.545 37.373 169.621 37.297L168.207 35.8827ZM167.59 36.8013C167.431 37.1643 167.355 37.5487 167.355 37.9434H169.355C169.355 37.808 169.38 37.6983 169.422 37.603L167.59 36.8013ZM167.355 37.9434V38.3408H169.355V37.9434H167.355ZM168.516 37.3538L167.195 37.1389L166.874 39.113L168.195 39.3279L168.516 37.3538ZM168.034 38.126V38.0186H166.034V38.126H168.034ZM168.034 38.0186C168.034 37.7016 168.092 37.4143 168.204 37.1475L166.359 36.3759C166.141 36.8969 166.034 37.4475 166.034 38.0186H168.034ZM168.198 37.1617C168.321 36.8783 168.484 36.6397 168.687 36.4376L167.272 35.0234C166.887 35.4085 166.585 35.8574 166.365 36.3618L168.198 37.1617ZM168.687 36.4376C168.886 36.2386 169.119 36.0815 169.397 35.9655L168.625 34.1204C168.114 34.3339 167.661 34.6351 167.272 35.0234L168.687 36.4376ZM169.411 35.9595C169.674 35.8445 169.957 35.7852 170.268 35.7852V33.7852C169.691 33.7852 169.135 33.8977 168.611 34.1264L169.411 35.9595ZM170.268 35.7852H171.041V33.7852H170.268V35.7852ZM171.041 35.7852C171.352 35.7852 171.634 35.8445 171.898 35.9595L172.698 34.1264C172.174 33.8977 171.618 33.7852 171.041 33.7852V35.7852ZM171.912 35.9655C172.189 36.0815 172.423 36.2386 172.622 36.4376L174.036 35.0234C173.648 34.6351 173.194 34.3339 172.684 34.1204L171.912 35.9655ZM172.622 36.4376C172.821 36.6365 172.978 36.8703 173.094 37.1475L174.939 36.3759C174.726 35.8654 174.424 35.4116 174.036 35.0234L172.622 36.4376ZM173.1 37.1617C173.215 37.4252 173.274 37.7075 173.274 38.0186H175.274C175.274 37.4416 175.162 36.886 174.933 36.3618L173.1 37.1617ZM173.274 38.0186V46H175.274V38.0186H173.274ZM174.274 45H173.834V47H174.274V45ZM172.953 39.6719H170.16V41.6719H172.953V39.6719ZM170.16 39.6719C169.765 39.6719 169.382 39.7473 169.018 39.9017L169.799 41.7428C169.908 41.6967 170.025 41.6719 170.16 41.6719V39.6719ZM169.007 39.9061C168.659 40.0587 168.349 40.274 168.085 40.5487L169.528 41.9337C169.608 41.8504 169.699 41.7864 169.809 41.7384L169.007 39.9061ZM168.1 40.5341C167.832 40.8018 167.625 41.1151 167.478 41.463L169.319 42.2441C169.372 42.1193 169.438 42.0243 169.514 41.9483L168.1 40.5341ZM167.482 41.4527C167.323 41.8157 167.248 42.2001 167.248 42.5947H169.248C169.248 42.4594 169.273 42.3497 169.315 42.2543L167.482 41.4527ZM167.248 42.5947V43.0566H169.248V42.5947H167.248ZM167.248 43.0566C167.248 43.4514 167.323 43.8353 167.478 44.1991L169.319 43.418C169.273 43.3093 169.248 43.1918 169.248 43.0566H167.248ZM167.482 44.2094C167.631 44.5494 167.837 44.8546 168.1 45.1173L169.514 43.703C169.433 43.6219 169.366 43.5261 169.315 43.4078L167.482 44.2094ZM168.1 45.1173C168.362 45.3799 168.667 45.5858 169.007 45.7345L169.809 43.9022C169.691 43.8504 169.595 43.7842 169.514 43.703L168.1 45.1173ZM169.018 45.7389C169.382 45.8933 169.765 45.9688 170.16 45.9688V43.9688C170.025 43.9688 169.908 43.9439 169.799 43.8978L169.018 45.7389ZM170.16 45.9688H171.041V43.9688H170.16V45.9688ZM171.041 45.9688C171.436 45.9688 171.82 45.8933 172.183 45.7345L171.381 43.9022C171.286 43.9439 171.176 43.9688 171.041 43.9688V45.9688ZM172.173 45.7389C172.521 45.5914 172.834 45.385 173.102 45.1173L171.687 43.703C171.611 43.7791 171.516 43.8448 171.392 43.8978L172.173 45.7389ZM173.102 45.1173C173.364 44.8546 173.57 44.5494 173.719 44.2094L171.887 43.4078C171.835 43.5261 171.769 43.6219 171.687 43.703L173.102 45.1173ZM173.723 44.1991C173.878 43.8353 173.953 43.4514 173.953 43.0566H171.953C171.953 43.1918 171.928 43.3093 171.882 43.418L173.723 44.1991ZM173.953 43.0566V40.6719H171.953V43.0566H173.953ZM179.398 36.4072L179.008 35.4866L178.998 35.4911L179.398 36.4072ZM178.389 37.4277L179.305 37.8286L179.309 37.8183L178.389 37.4277ZM178.238 46V47H179.238V46H178.238ZM176.917 46H175.917V47H176.917V46ZM176.917 35V34H175.917V35H176.917ZM177.357 35L178.198 34.4584L177.903 34H177.357V35ZM178.077 36.1172L177.236 36.6588L178.022 37.8779L178.882 36.7104L178.077 36.1172ZM179.205 35.1504L179.669 36.0362L179.674 36.0335L179.205 35.1504ZM181.472 34.7852H182.472V33.7852H181.472V34.7852ZM181.472 36.2568V37.2568H182.472V36.2568H181.472ZM180.15 35.2568C179.756 35.2568 179.372 35.3323 179.008 35.4866L179.789 37.3278C179.898 37.2817 180.015 37.2568 180.15 37.2568V35.2568ZM178.998 35.4911C178.658 35.6398 178.352 35.8457 178.09 36.1083L179.504 37.5225C179.585 37.4414 179.681 37.3751 179.799 37.3234L178.998 35.4911ZM178.09 36.1083C177.822 36.3761 177.616 36.6893 177.468 37.0372L179.309 37.8183C179.362 37.6935 179.428 37.5986 179.504 37.5225L178.09 36.1083ZM177.473 37.0269C177.314 37.3899 177.238 37.7743 177.238 38.1689H179.238C179.238 38.0336 179.263 37.9239 179.305 37.8286L177.473 37.0269ZM177.238 38.1689V46H179.238V38.1689H177.238ZM178.238 45H176.917V47H178.238V45ZM177.917 46V35H175.917V46H177.917ZM176.917 36H177.357V34H176.917V36ZM176.517 35.5416L177.236 36.6588L178.918 35.5756L178.198 34.4584L176.517 35.5416ZM178.882 36.7104C179.093 36.4249 179.352 36.2025 179.669 36.0362L178.741 34.2646C178.156 34.571 177.663 34.9931 177.272 35.524L178.882 36.7104ZM179.674 36.0335C179.983 35.8695 180.319 35.7852 180.698 35.7852V33.7852C180.003 33.7852 179.344 33.9443 178.736 34.2673L179.674 36.0335ZM180.698 35.7852H181.472V33.7852H180.698V35.7852ZM180.472 34.7852V36.2568H182.472V34.7852H180.472ZM181.472 35.2568H180.15V37.2568H181.472V35.2568ZM186.102 45.7744L185.708 46.6936L185.714 46.6964L186.102 45.7744ZM185.178 45.1514L184.461 45.8488L184.471 45.8585L185.178 45.1514ZM184.555 44.2275L183.636 44.6215L183.639 44.6293L183.642 44.6371L184.555 44.2275ZM184.329 36.2568H185.329V35.2568H184.329V36.2568ZM182.353 36.2568H181.353V37.2568H182.353V36.2568ZM182.353 35V34H181.353V35H182.353ZM184.329 35V36H185.329V35H184.329ZM184.329 32.3574L184.169 31.3704L183.329 31.5069V32.3574H184.329ZM185.65 32.1426H186.65V30.9668L185.49 31.1555L185.65 32.1426ZM185.65 35H184.65V36H185.65V35ZM188.443 35H189.443V34H188.443V35ZM188.443 36.2568V37.2568H189.443V36.2568H188.443ZM185.65 36.2568V35.2568H184.65V36.2568H185.65ZM185.769 43.7871L184.842 44.1644L184.851 44.1855L184.861 44.2062L185.769 43.7871ZM186.617 44.625L186.211 45.5388L186.225 45.5452L186.24 45.5511L186.617 44.625ZM188.443 44.7432H189.443V43.7432H188.443V44.7432ZM188.443 46V47H189.443V46H188.443ZM187.24 45C186.968 45 186.72 44.9496 186.489 44.8524L185.714 46.6964C186.199 46.9 186.711 47 187.24 47V45ZM186.495 44.8553C186.259 44.754 186.058 44.6176 185.885 44.4443L184.471 45.8585C184.827 46.2151 185.242 46.494 185.708 46.6936L186.495 44.8553ZM185.894 44.454C185.721 44.2762 185.579 44.0666 185.467 43.8179L183.642 44.6371C183.846 45.0903 184.118 45.4966 184.461 45.8487L185.894 44.454ZM185.474 43.8336C185.379 43.6134 185.329 43.3722 185.329 43.0996H183.329C183.329 43.6291 183.429 44.1398 183.636 44.6215L185.474 43.8336ZM185.329 43.0996V36.2568H183.329V43.0996H185.329ZM184.329 35.2568H182.353V37.2568H184.329V35.2568ZM183.353 36.2568V35H181.353V36.2568H183.353ZM182.353 36H184.329V34H182.353V36ZM185.329 35V32.3574H183.329V35H185.329ZM184.49 33.3445L185.811 33.1296L185.49 31.1555L184.169 31.3704L184.49 33.3445ZM184.65 32.1426V35H186.65V32.1426H184.65ZM185.65 36H188.443V34H185.65V36ZM187.443 35V36.2568H189.443V35H187.443ZM188.443 35.2568H185.65V37.2568H188.443V35.2568ZM184.65 36.2568V43.1641H186.65V36.2568H184.65ZM184.65 43.1641C184.65 43.5071 184.712 43.8438 184.842 44.1644L186.695 43.4098C186.668 43.3437 186.65 43.265 186.65 43.1641H184.65ZM184.861 44.2062C184.995 44.4981 185.177 44.7607 185.405 44.9884L186.819 43.5741C186.761 43.5154 186.714 43.4485 186.677 43.3681L184.861 44.2062ZM185.405 44.9884C185.639 45.2222 185.911 45.4053 186.211 45.5388L187.023 43.7112C186.937 43.6728 186.872 43.6267 186.819 43.5741L185.405 44.9884ZM186.24 45.5511C186.56 45.6817 186.897 45.7432 187.24 45.7432V43.7432C187.139 43.7432 187.061 43.7258 186.994 43.6989L186.24 45.5511ZM187.24 45.7432H188.443V43.7432H187.24V45.7432ZM187.443 44.7432V46H189.443V44.7432H187.443ZM188.443 45H187.24V47H188.443V45ZM197.972 44.2383L197.055 43.8383L197.052 43.8454L197.049 43.8525L197.972 44.2383ZM197.284 45.2695L196.577 44.5624L197.284 45.2695ZM196.253 45.9678L196.639 46.8904L196.646 46.8874L196.653 46.8843L196.253 45.9678ZM192.858 45.9678L192.458 46.8843L192.465 46.8874L192.473 46.8904L192.858 45.9678ZM191.827 45.2695L191.12 45.9766L191.827 45.2695ZM191.129 44.2383L190.206 44.6241L190.209 44.6312L190.212 44.6382L191.129 44.2383ZM191.129 36.7617L190.212 36.3618L190.209 36.3688L190.206 36.3759L191.129 36.7617ZM191.827 35.7305L191.12 35.0234L191.827 35.7305ZM192.858 35.043L193.244 35.9655L193.251 35.9626L193.258 35.9595L192.858 35.043ZM196.253 35.043L195.853 35.9595L195.86 35.9626L195.867 35.9655L196.253 35.043ZM197.284 35.7305L196.577 36.4376L197.284 35.7305ZM197.972 36.7617L197.049 37.1475L197.052 37.1546L197.055 37.1617L197.972 36.7617ZM198.229 40.6074V41.6074H199.229V40.6074H198.229ZM192.203 40.6074V39.6074H191.203V40.6074H192.203ZM192.354 43.8086L191.433 44.1992L191.437 44.2094L192.354 43.8086ZM193.363 44.8184L192.962 45.7346L192.973 45.7389L193.363 44.8184ZM195.737 44.8184L195.347 43.8977L195.336 43.9022L195.737 44.8184ZM196.758 43.8086L197.674 44.2094L197.678 44.1991L196.758 43.8086ZM196.908 42.3262L197.069 41.3391L195.908 41.1504V42.3262H196.908ZM198.229 42.541H199.229V41.6905L198.39 41.554L198.229 42.541ZM196.758 37.2021L195.837 37.5927L195.842 37.603L196.758 37.2021ZM195.737 36.1816L195.336 37.0979L195.347 37.1022L195.737 36.1816ZM193.363 36.1816L192.973 35.261L192.962 35.2655L193.363 36.1816ZM192.354 37.2021L193.27 37.603L193.274 37.5927L192.354 37.2021ZM192.203 39.5762H191.203V40.5762H192.203V39.5762ZM196.908 39.5762V40.5762H197.908V39.5762H196.908ZM197.229 42.9814C197.229 43.2925 197.17 43.5748 197.055 43.8383L198.888 44.6382C199.117 44.114 199.229 43.5584 199.229 42.9814H197.229ZM197.049 43.8525C196.933 44.1297 196.776 44.3635 196.577 44.5624L197.991 45.9766C198.38 45.5884 198.681 45.1346 198.894 44.6241L197.049 43.8525ZM196.577 44.5624C196.375 44.7646 196.136 44.9276 195.853 45.0512L196.653 46.8843C197.157 46.6642 197.606 46.3617 197.991 45.9766L196.577 44.5624ZM195.867 45.0452C195.6 45.1568 195.313 45.2148 194.996 45.2148V47.2148C195.567 47.2148 196.118 47.1082 196.639 46.8904L195.867 45.0452ZM194.996 45.2148H194.115V47.2148H194.996V45.2148ZM194.115 45.2148C193.798 45.2148 193.511 45.1568 193.244 45.0452L192.473 46.8904C192.994 47.1082 193.544 47.2148 194.115 47.2148V45.2148ZM193.258 45.0512C192.975 44.9276 192.736 44.7646 192.534 44.5624L191.12 45.9766C191.505 46.3617 191.954 46.6642 192.458 46.8843L193.258 45.0512ZM192.534 44.5624C192.332 44.3603 192.169 44.1217 192.045 43.8383L190.212 44.6382C190.432 45.1426 190.735 45.5915 191.12 45.9766L192.534 44.5624ZM192.051 43.8525C191.94 43.5857 191.882 43.2984 191.882 42.9814H189.882C189.882 43.5525 189.988 44.1031 190.206 44.6241L192.051 43.8525ZM191.882 42.9814V38.0186H189.882V42.9814H191.882ZM191.882 38.0186C191.882 37.7016 191.94 37.4143 192.051 37.1475L190.206 36.3759C189.988 36.8969 189.882 37.4475 189.882 38.0186H191.882ZM192.045 37.1617C192.169 36.8783 192.332 36.6397 192.534 36.4376L191.12 35.0234C190.735 35.4085 190.432 35.8574 190.212 36.3618L192.045 37.1617ZM192.534 36.4376C192.733 36.2386 192.967 36.0815 193.244 35.9655L192.473 34.1204C191.962 34.3339 191.508 34.6351 191.12 35.0234L192.534 36.4376ZM193.258 35.9595C193.522 35.8445 193.804 35.7852 194.115 35.7852V33.7852C193.538 33.7852 192.983 33.8977 192.458 34.1264L193.258 35.9595ZM194.115 35.7852H194.996V33.7852H194.115V35.7852ZM194.996 35.7852C195.307 35.7852 195.589 35.8445 195.853 35.9595L196.653 34.1264C196.129 33.8977 195.573 33.7852 194.996 33.7852V35.7852ZM195.867 35.9655C196.144 36.0815 196.378 36.2386 196.577 36.4376L197.991 35.0234C197.603 34.6351 197.149 34.3339 196.639 34.1204L195.867 35.9655ZM196.577 36.4376C196.776 36.6365 196.933 36.8703 197.049 37.1475L198.894 36.3759C198.681 35.8654 198.38 35.4116 197.991 35.0234L196.577 36.4376ZM197.055 37.1617C197.17 37.4252 197.229 37.7075 197.229 38.0186H199.229C199.229 37.4416 199.117 36.886 198.888 36.3618L197.055 37.1617ZM197.229 38.0186V40.6074H199.229V38.0186H197.229ZM198.229 39.6074H192.203V41.6074H198.229V39.6074ZM191.203 40.6074V43.0566H193.203V40.6074H191.203ZM191.203 43.0566C191.203 43.4514 191.279 43.8353 191.433 44.1991L193.274 43.418C193.228 43.3093 193.203 43.1918 193.203 43.0566H191.203ZM191.437 44.2094C191.586 44.5494 191.792 44.8546 192.055 45.1173L193.469 43.703C193.388 43.6219 193.321 43.5261 193.27 43.4078L191.437 44.2094ZM192.055 45.1173C192.317 45.3799 192.622 45.5858 192.962 45.7345L193.764 43.9022C193.646 43.8504 193.55 43.7842 193.469 43.703L192.055 45.1173ZM192.973 45.7389C193.337 45.8933 193.72 45.9688 194.115 45.9688V43.9688C193.98 43.9688 193.863 43.9439 193.754 43.8978L192.973 45.7389ZM194.115 45.9688H194.996V43.9688H194.115V45.9688ZM194.996 45.9688C195.391 45.9688 195.775 45.8933 196.138 45.7345L195.336 43.9022C195.241 43.9439 195.131 43.9688 194.996 43.9688V45.9688ZM196.128 45.7389C196.476 45.5914 196.789 45.385 197.057 45.1173L195.643 43.703C195.566 43.7791 195.472 43.8448 195.347 43.8978L196.128 45.7389ZM197.057 45.1173C197.319 44.8546 197.525 44.5494 197.674 44.2094L195.842 43.4078C195.79 43.5261 195.724 43.6219 195.643 43.703L197.057 45.1173ZM197.678 44.1991C197.833 43.8353 197.908 43.4514 197.908 43.0566H195.908C195.908 43.1918 195.883 43.3093 195.837 43.418L197.678 44.1991ZM197.908 43.0566V42.3262H195.908V43.0566H197.908ZM196.748 43.3132L198.069 43.5281L198.39 41.554L197.069 41.3391L196.748 43.3132ZM197.229 42.541V42.9814H199.229V42.541H197.229ZM197.908 37.9434C197.908 37.5487 197.833 37.1643 197.674 36.8013L195.842 37.603C195.883 37.6983 195.908 37.808 195.908 37.9434H197.908ZM197.678 36.8116C197.531 36.4638 197.324 36.1505 197.057 35.8827L195.643 37.297C195.719 37.373 195.784 37.4679 195.837 37.5927L197.678 36.8116ZM197.057 35.8827C196.789 35.615 196.476 35.4086 196.128 35.2611L195.347 37.1022C195.472 37.1552 195.566 37.2209 195.643 37.297L197.057 35.8827ZM196.138 35.2655C195.775 35.1067 195.391 35.0312 194.996 35.0312V37.0312C195.131 37.0312 195.241 37.0561 195.336 37.0978L196.138 35.2655ZM194.996 35.0312H194.115V37.0312H194.996V35.0312ZM194.115 35.0312C193.72 35.0312 193.337 35.1067 192.973 35.2611L193.754 37.1022C193.863 37.0561 193.98 37.0312 194.115 37.0312V35.0312ZM192.962 35.2655C192.622 35.4142 192.317 35.6201 192.055 35.8827L193.469 37.297C193.55 37.2158 193.646 37.1496 193.764 37.0978L192.962 35.2655ZM192.055 35.8827C191.787 36.1505 191.581 36.4638 191.433 36.8116L193.274 37.5927C193.327 37.4679 193.393 37.373 193.469 37.297L192.055 35.8827ZM191.437 36.8013C191.279 37.1643 191.203 37.5487 191.203 37.9434H193.203C193.203 37.808 193.228 37.6983 193.27 37.603L191.437 36.8013ZM191.203 37.9434V39.5762H193.203V37.9434H191.203ZM192.203 40.5762H196.908V38.5762H192.203V40.5762ZM197.908 39.5762V37.9434H195.908V39.5762H197.908ZM207.779 46L206.942 46.5472L207.238 47H207.779V46ZM207.049 44.8828L207.886 44.3356L207.098 43.1305L206.244 44.2896L207.049 44.8828ZM205.921 45.8604L206.385 46.7463L206.396 46.7404L205.921 45.8604ZM202.849 45.9678L202.449 46.8843L202.456 46.8874L202.463 46.8904L202.849 45.9678ZM201.817 45.2695L201.11 45.9766L201.817 45.2695ZM201.119 44.2383L200.197 44.6241L200.2 44.6312L200.203 44.6382L201.119 44.2383ZM201.119 36.7617L200.203 36.3618L200.2 36.3688L200.197 36.3759L201.119 36.7617ZM201.817 35.7305L201.11 35.0234L201.817 35.7305ZM202.849 35.043L203.234 35.9655L203.242 35.9626L203.249 35.9595L202.849 35.043ZM205.813 35.0859L205.385 35.9894L205.813 35.0859ZM206.898 35.9238L206.133 36.567L207.898 38.6691V35.9238H206.898ZM206.898 30.5957V29.5957H205.898V30.5957H206.898ZM208.22 30.5957H209.22V29.5957H208.22V30.5957ZM208.22 46V47H209.22V46H208.22ZM206.748 37.2021L205.827 37.5927L205.832 37.603L206.748 37.2021ZM205.728 36.1816L205.327 37.0979L205.337 37.1022L205.728 36.1816ZM203.354 36.1816L202.963 35.261L202.953 35.2655L203.354 36.1816ZM202.344 37.2021L203.26 37.603L203.264 37.5927L202.344 37.2021ZM202.344 43.8086L201.423 44.1992L201.428 44.2094L202.344 43.8086ZM203.354 44.8184L202.953 45.7346L202.963 45.7389L203.354 44.8184ZM205.728 44.8184L205.337 43.8977L205.327 43.9022L205.728 44.8184ZM206.748 43.8086L207.664 44.2094L207.669 44.1991L206.748 43.8086ZM208.616 45.4528L207.886 44.3356L206.212 45.4301L206.942 46.5472L208.616 45.4528ZM206.244 44.2896C206.032 44.5777 205.769 44.8061 205.446 44.9803L206.396 46.7404C206.975 46.4276 207.465 46.0044 207.854 45.476L206.244 44.2896ZM205.457 44.9745C205.157 45.1317 204.823 45.2148 204.438 45.2148V47.2148C205.128 47.2148 205.783 47.0616 206.385 46.7462L205.457 44.9745ZM204.438 45.2148H204.105V47.2148H204.438V45.2148ZM204.105 45.2148C203.789 45.2148 203.501 45.1568 203.234 45.0452L202.463 46.8904C202.984 47.1082 203.534 47.2148 204.105 47.2148V45.2148ZM203.249 45.0512C202.965 44.9276 202.727 44.7646 202.524 44.5624L201.11 45.9766C201.495 46.3617 201.944 46.6642 202.449 46.8843L203.249 45.0512ZM202.524 44.5624C202.322 44.3603 202.159 44.1217 202.036 43.8383L200.203 44.6382C200.423 45.1426 200.725 45.5915 201.11 45.9766L202.524 44.5624ZM202.042 43.8525C201.93 43.5857 201.872 43.2984 201.872 42.9814H199.872C199.872 43.5525 199.979 44.1031 200.197 44.6241L202.042 43.8525ZM201.872 42.9814V38.0186H199.872V42.9814H201.872ZM201.872 38.0186C201.872 37.7016 201.93 37.4143 202.042 37.1475L200.197 36.3759C199.979 36.8969 199.872 37.4475 199.872 38.0186H201.872ZM202.036 37.1617C202.159 36.8783 202.322 36.6397 202.524 36.4376L201.11 35.0234C200.725 35.4085 200.423 35.8574 200.203 36.3618L202.036 37.1617ZM202.524 36.4376C202.723 36.2386 202.957 36.0815 203.234 35.9655L202.463 34.1204C201.952 34.3339 201.499 34.6351 201.11 35.0234L202.524 36.4376ZM203.249 35.9595C203.512 35.8445 203.794 35.7852 204.105 35.7852V33.7852C203.529 33.7852 202.973 33.8977 202.449 34.1264L203.249 35.9595ZM204.105 35.7852H204.438V33.7852H204.105V35.7852ZM204.438 35.7852C204.793 35.7852 205.104 35.856 205.385 35.9894L206.242 34.1825C205.678 33.9148 205.072 33.7852 204.438 33.7852V35.7852ZM205.385 35.9894C205.678 36.1283 205.924 36.3189 206.133 36.567L207.664 35.2806C207.271 34.8126 206.794 34.4446 206.242 34.1825L205.385 35.9894ZM207.898 35.9238V30.5957H205.898V35.9238H207.898ZM206.898 31.5957H208.22V29.5957H206.898V31.5957ZM207.22 30.5957V46H209.22V30.5957H207.22ZM208.22 45H207.779V47H208.22V45ZM207.898 37.9434C207.898 37.5487 207.823 37.1643 207.664 36.8013L205.832 37.603C205.874 37.6983 205.898 37.808 205.898 37.9434H207.898ZM207.669 36.8116C207.521 36.4638 207.315 36.1505 207.047 35.8827L205.633 37.297C205.709 37.373 205.775 37.4679 205.827 37.5927L207.669 36.8116ZM207.047 35.8827C206.779 35.615 206.466 35.4086 206.118 35.2611L205.337 37.1022C205.462 37.1552 205.557 37.2209 205.633 37.297L207.047 35.8827ZM206.128 35.2655C205.765 35.1067 205.381 35.0312 204.986 35.0312V37.0312C205.122 37.0312 205.231 37.0561 205.327 37.0978L206.128 35.2655ZM204.986 35.0312H204.105V37.0312H204.986V35.0312ZM204.105 35.0312C203.711 35.0312 203.327 35.1067 202.963 35.2611L203.744 37.1022C203.853 37.0561 203.97 37.0312 204.105 37.0312V35.0312ZM202.953 35.2655C202.613 35.4142 202.307 35.6201 202.045 35.8827L203.459 37.297C203.54 37.2158 203.636 37.1496 203.754 37.0978L202.953 35.2655ZM202.045 35.8827C201.777 36.1505 201.571 36.4638 201.423 36.8116L203.264 37.5927C203.317 37.4679 203.383 37.373 203.459 37.297L202.045 35.8827ZM201.428 36.8013C201.269 37.1643 201.193 37.5487 201.193 37.9434H203.193C203.193 37.808 203.218 37.6983 203.26 37.603L201.428 36.8013ZM201.193 37.9434V43.0566H203.193V37.9434H201.193ZM201.193 43.0566C201.193 43.4514 201.269 43.8353 201.423 44.1991L203.264 43.418C203.218 43.3093 203.193 43.1918 203.193 43.0566H201.193ZM201.428 44.2094C201.576 44.5494 201.782 44.8546 202.045 45.1173L203.459 43.703C203.378 43.6219 203.312 43.5261 203.26 43.4078L201.428 44.2094ZM202.045 45.1173C202.307 45.3799 202.613 45.5858 202.953 45.7345L203.754 43.9022C203.636 43.8504 203.54 43.7842 203.459 43.703L202.045 45.1173ZM202.963 45.7389C203.327 45.8933 203.711 45.9688 204.105 45.9688V43.9688C203.97 43.9688 203.853 43.9439 203.744 43.8978L202.963 45.7389ZM204.105 45.9688H204.986V43.9688H204.105V45.9688ZM204.986 45.9688C205.381 45.9688 205.765 45.8933 206.128 45.7345L205.327 43.9022C205.231 43.9439 205.122 43.9688 204.986 43.9688V45.9688ZM206.118 45.7389C206.466 45.5914 206.779 45.385 207.047 45.1173L205.633 43.703C205.557 43.7791 205.462 43.8448 205.337 43.8978L206.118 45.7389ZM207.047 45.1173C207.31 44.8546 207.515 44.5494 207.664 44.2094L205.832 43.4078C205.78 43.5261 205.714 43.6219 205.633 43.703L207.047 45.1173ZM207.669 44.1991C207.823 43.8353 207.898 43.4514 207.898 43.0566H205.898C205.898 43.1918 205.874 43.3093 205.827 43.418L207.669 44.1991ZM207.898 43.0566V37.9434H205.898V43.0566H207.898Z" fill="white"/>
</svg>
