<svg width="411" height="130" viewBox="0 0 411 130" fill="none" xmlns="http://www.w3.org/2000/svg">
<path d="M164.596 61.1846C98.6171 83.6954 25.8602 103.999 -34.9999 124.83C-34.7195 97.7592 -33.8783 16.542 -33.5655 -13.6614C31.6061 -12.9864 441.171 -21.5049 413.5 -13.6614C275.37 25.4929 213.724 44.4229 164.596 61.1846Z" fill="url(#paint0_linear)"/>
<path d="M164.596 61.1846C98.6171 83.6954 25.8602 103.999 -34.9999 124.83C-34.7195 97.7592 -33.8783 16.542 -33.5655 -13.6614C31.6061 -12.9864 441.171 -21.5049 413.5 -13.6614C275.37 25.4929 213.724 44.4229 164.596 61.1846Z" fill="url(#paint1_linear)"/>
<defs>
<linearGradient id="paint0_linear" x1="181.949" y1="-15.0426" x2="180.477" y2="127.062" gradientUnits="userSpaceOnUse">
<stop offset="0.9999" stop-color="#D1A7A7"/>
<stop offset="1" stop-color="white" stop-opacity="0"/>
</linearGradient>
<linearGradient id="paint1_linear" x1="181.949" y1="-15.0426" x2="180.477" y2="127.062" gradientUnits="userSpaceOnUse">
<stop stop-color="#FFBCB8"/>
<stop offset="1" stop-color="white" stop-opacity="0"/>
</linearGradient>
</defs>
</svg>
